<svg width="137" height="137" viewBox="0 0 137 137" fill="none" xmlns="http://www.w3.org/2000/svg">
<circle cx="68.1349" cy="68.1329" r="53.5333" fill="#FFFEFE" fill-opacity="0.4"/>
<g clip-path="url(#clip0_25452_3751)">
<mask id="mask0_25452_3751" style="mask-type:luminance" maskUnits="userSpaceOnUse" x="5" y="24" width="126" height="87">
<path d="M130.679 24.248H5.58594V110.143H130.679V24.248Z" fill="white"/>
</mask>
<g mask="url(#mask0_25452_3751)">
<path d="M39.9294 48.9482H44.8834V53.3629H39.9294V60.0261C39.9294 62.366 41.4695 63.2709 43.5444 63.2709C44.1056 63.2595 44.6649 63.2029 45.217 63.1018V67.5851C44.2617 67.7986 43.2847 67.8998 42.3059 67.8867C37.3884 67.8867 34.7423 64.9756 34.7423 60.3598V53.3629H32.1328V48.9482H34.7789V44.666H39.9294V48.9482Z" fill="#231F20"/>
<path d="M100.598 55.1034V67.4838H95.2465V56.6435C95.2465 54.3585 94.2411 53.3302 92.2988 53.3302C91.8736 53.3114 91.4493 53.3813 91.0526 53.5354C90.656 53.6895 90.2958 53.9245 89.9949 54.2254C89.694 54.5263 89.459 54.8865 89.3049 55.2832C89.1508 55.6798 89.0809 56.1042 89.0997 56.5293V67.4976H83.7344V48.9475H87.884L88.4187 51.557H88.5421C89.1315 50.6074 89.9551 49.8253 90.9339 49.2859C91.9127 48.7465 93.0138 48.4679 94.1314 48.4768C98.1439 48.4768 100.621 50.9538 100.621 55.1034" fill="#231F20"/>
<path d="M31.4851 72.7002C32.1176 71.7146 32.9887 70.9046 34.0177 70.3453C35.0467 69.7861 36.2002 69.4957 37.3714 69.5012C41.6901 69.5012 45.5062 73.3172 45.5062 79.2401C45.5062 85.1629 41.4708 88.9927 37.1703 88.9927C35.9663 89.0068 34.779 88.7097 33.7237 88.13C32.6684 87.5502 31.7807 86.7077 31.1469 85.6839L30.6122 88.5265H26.1289V61.6543H31.4851V72.7002ZM35.7353 84.1758C38.2443 84.1758 40.0814 82.1329 40.0814 79.2903C40.0814 76.4477 38.2534 74.3363 35.6987 74.3363C33.144 74.3363 31.4165 76.3792 31.4165 79.2583C31.4165 82.1375 33.2446 84.1758 35.7353 84.1758Z" fill="#231F20"/>
<path d="M110.136 76.2452V88.5251H104.78V77.3512C104.78 75.3403 104.112 74.3715 102.307 74.3715C100.502 74.3715 99.5972 75.642 99.5972 77.1501V88.5251H94.2411V77.3512C94.2411 75.3403 93.5738 74.3715 91.7641 74.3715C89.9543 74.3715 89.086 75.7791 89.086 77.3832V88.5251H83.7344V69.9887H87.884L88.4187 72.5617H88.5421C89.0394 71.6312 89.7828 70.8553 90.6911 70.3185C91.5994 69.7817 92.6377 69.5048 93.6926 69.518C96.3067 69.518 97.9428 70.7565 98.8797 72.6668C100.086 70.7245 101.859 69.518 104.204 69.518C108.253 69.518 110.145 72.1961 110.145 76.2452" fill="#231F20"/>
<path d="M47.3398 58.2906C47.338 56.258 47.9392 54.2707 49.0671 52.5799C50.1951 50.8891 51.7993 49.5709 53.6766 48.792C55.554 48.0132 57.6202 47.8087 59.6138 48.2044C61.6074 48.6002 63.4388 49.5784 64.8764 51.0153C66.3139 52.4521 67.2929 54.2831 67.6895 56.2766C68.0862 58.27 67.8826 60.3363 67.1046 62.214C66.3266 64.0917 65.0091 65.6965 63.3188 66.8252C61.6285 67.9539 59.6414 68.5559 57.6089 68.555C54.8862 68.555 52.2749 67.4737 50.3492 65.5489C48.4235 63.6241 47.3411 61.0133 47.3398 58.2906Z" fill="#231F20"/>
<path d="M69.6914 58.2879C69.6905 57.1334 70.032 56.0046 70.6727 55.0443C71.3135 54.084 72.2246 53.3352 73.2909 52.8928C74.3572 52.4504 75.5308 52.3342 76.6632 52.5588C77.7956 52.7835 78.8359 53.339 79.6525 54.155C80.4691 54.971 81.0254 56.0109 81.251 57.1431C81.4765 58.2753 81.3612 59.4489 80.9197 60.5156C80.4781 61.5822 79.7301 62.494 78.7702 63.1355C77.8104 63.7769 76.6819 64.1193 75.5274 64.1193C73.9804 64.1193 72.4967 63.5051 71.4024 62.4116C70.308 61.3181 69.6926 59.8349 69.6914 58.2879Z" fill="#231F20"/>
<path d="M81.3636 79.3283C81.3636 81.3602 80.7611 83.3465 79.6322 85.036C78.5033 86.7255 76.8988 88.0423 75.0215 88.8199C73.1443 89.5974 71.0786 89.8009 69.0857 89.4045C67.0928 89.0081 65.2623 88.0296 63.8255 86.5928C62.3887 85.156 61.4102 83.3254 61.0138 81.3326C60.6174 79.3397 60.8209 77.274 61.5984 75.3968C62.376 73.5195 63.6928 71.915 65.3823 70.7861C67.0718 69.6572 69.0581 69.0547 71.09 69.0547C72.4393 69.0541 73.7755 69.3194 75.0223 69.8355C76.269 70.3516 77.4018 71.1083 78.3559 72.0624C79.31 73.0165 80.0667 74.1493 80.5828 75.396C81.0989 76.6428 81.3642 77.979 81.3636 79.3283Z" fill="#231F20"/>
<path d="M59.0119 79.3302C59.0119 80.4844 58.6696 81.6128 58.0283 82.5725C57.3871 83.5322 56.4756 84.2802 55.4092 84.722C54.3428 85.1637 53.1694 85.2792 52.0373 85.0541C50.9052 84.8289 49.8654 84.273 49.0492 83.4569C48.233 82.6407 47.6772 81.6008 47.452 80.4687C47.2268 79.3366 47.3424 78.1632 47.7841 77.0968C48.2258 76.0304 48.9738 75.119 49.9336 74.4777C50.8933 73.8364 52.0216 73.4941 53.1759 73.4941C53.9424 73.4935 54.7016 73.6441 55.4099 73.9372C56.1183 74.2302 56.7619 74.6601 57.3039 75.2021C57.8459 75.7442 58.2758 76.3878 58.5689 77.0961C58.862 77.8044 59.0125 78.5636 59.0119 79.3302Z" fill="#231F20"/>
</g>
</g>
<defs>
<clipPath id="clip0_25452_3751">
<rect width="84.0077" height="44.9333" fill="white" transform="translate(26.1289 44.666)"/>
</clipPath>
</defs>
</svg>
