<svg width="292" height="21" viewBox="0 0 292 21" fill="none" xmlns="http://www.w3.org/2000/svg">
<path d="M47.5222 2.53471L47.5983 1.58322L46.8143 2.13889L46.6087 1.78113L47.4917 1.3777L46.6087 0.966653L46.8143 0.616504L47.5983 1.16456L47.5222 0.213073H47.918L47.8419 1.16456L48.6259 0.616504L48.8314 0.966653L47.9484 1.3777L48.8314 1.78113L48.6259 2.13889L47.8419 1.58322L47.918 2.53471H47.5222ZM52.5437 5.64798C51.7774 5.64798 51.1405 5.3841 50.6331 4.85634C50.1256 4.32351 49.8719 3.66888 49.8719 2.89247C49.8719 2.1262 50.1281 1.47665 50.6407 0.943817C51.1532 0.405908 51.7952 0.136954 52.5665 0.136954C53.0131 0.136954 53.3937 0.210535 53.7083 0.357699C54.0229 0.499788 54.3299 0.712922 54.6293 0.9971L54.2335 1.42337C53.721 0.936205 53.1628 0.692623 52.5589 0.692623C51.9702 0.692623 51.478 0.90322 51.0822 1.32441C50.6914 1.74561 50.4961 2.26829 50.4961 2.89247C50.4961 3.51157 50.694 4.03426 51.0898 4.46052C51.4856 4.88172 51.9753 5.09231 52.5589 5.09231C52.904 5.09231 53.2084 5.02888 53.4723 4.90202C53.7362 4.77515 54.0052 4.58231 54.2792 4.32351L54.675 4.74217C54.3756 5.04157 54.061 5.26739 53.7311 5.41963C53.4013 5.57186 53.0055 5.64798 52.5437 5.64798ZM57.3489 5.64798C56.7958 5.64798 56.3289 5.45769 55.9483 5.07709C55.5728 4.69142 55.385 4.19664 55.385 3.59277C55.385 3.01933 55.5652 2.53471 55.9255 2.13889C56.2858 1.73799 56.7349 1.53755 57.2728 1.53755C57.8361 1.53755 58.2826 1.73546 58.6125 2.13128C58.9423 2.5271 59.1073 3.02441 59.1073 3.62321C59.1073 3.69933 59.1047 3.76784 59.0997 3.82873H55.9788C56.0194 4.22963 56.1691 4.54933 56.4279 4.78784C56.6918 5.02127 57.0038 5.13799 57.3641 5.13799C57.8361 5.13799 58.2497 4.95276 58.6049 4.58231L58.9703 4.90963C58.5288 5.40186 57.9883 5.64798 57.3489 5.64798ZM55.9788 3.3568H58.5135C58.478 2.9762 58.3512 2.66157 58.1329 2.41292C57.9198 2.15919 57.628 2.03232 57.2576 2.03232C56.9227 2.03232 56.6359 2.15665 56.3974 2.40531C56.1589 2.65396 56.0194 2.97113 55.9788 3.3568ZM60.1333 6.77455V1.62128H60.7195V2.41292C61.1153 1.82934 61.6177 1.53755 62.2266 1.53755C62.729 1.53755 63.168 1.72531 63.5435 2.10083C63.919 2.47128 64.1068 2.96859 64.1068 3.59277C64.1068 4.20679 63.919 4.70157 63.5435 5.07709C63.168 5.45261 62.729 5.64037 62.2266 5.64037C61.6075 5.64037 61.1051 5.36127 60.7195 4.80306V6.77455H60.1333ZM62.1201 5.11515C62.5159 5.11515 62.8457 4.97813 63.1096 4.70411C63.3735 4.425 63.5054 4.05202 63.5054 3.58515C63.5054 3.13351 63.3709 2.76814 63.102 2.48904C62.833 2.20486 62.5057 2.06277 62.1201 2.06277C61.7395 2.06277 61.4071 2.2074 61.1229 2.49665C60.8387 2.7859 60.6966 3.15127 60.6966 3.59277C60.6966 4.03426 60.8387 4.39963 61.1229 4.68888C61.4071 4.97306 61.7395 5.11515 62.1201 5.11515ZM66.9084 5.64798C66.3553 5.64798 65.8884 5.45769 65.5078 5.07709C65.1323 4.69142 64.9446 4.19664 64.9446 3.59277C64.9446 3.01933 65.1247 2.53471 65.485 2.13889C65.8453 1.73799 66.2944 1.53755 66.8323 1.53755C67.3956 1.53755 67.8422 1.73546 68.172 2.13128C68.5019 2.5271 68.6668 3.02441 68.6668 3.62321C68.6668 3.69933 68.6642 3.76784 68.6592 3.82873H65.5383C65.5789 4.22963 65.7286 4.54933 65.9874 4.78784C66.2513 5.02127 66.5634 5.13799 66.9237 5.13799C67.3956 5.13799 67.8092 4.95276 68.1644 4.58231L68.5298 4.90963C68.0883 5.40186 67.5478 5.64798 66.9084 5.64798ZM65.5383 3.3568H68.0731C68.0375 2.9762 67.9107 2.66157 67.6925 2.41292C67.4793 2.15919 67.1875 2.03232 66.8171 2.03232C66.4822 2.03232 66.1954 2.15665 65.9569 2.40531C65.7184 2.65396 65.5789 2.97113 65.5383 3.3568ZM69.1143 6.53858V5.03903H69.5406C69.8908 4.39963 70.0658 3.48874 70.0658 2.30635V1.62128H72.867V5.03903H73.4607L73.3694 6.53858H72.8822V5.55664H69.7005L69.5939 6.53858H69.1143ZM70.1648 5.03903H72.2809V2.13889H70.6291V2.68695C70.6291 3.6765 70.4743 4.46052 70.1648 5.03903ZM76.5465 5.55664V1.62128H79.9567V5.55664H79.3706V2.13889H77.1327V5.55664H76.5465ZM81.2668 6.77455V1.62128H81.8529V2.41292C82.2488 1.82934 82.7511 1.53755 83.3601 1.53755C83.8625 1.53755 84.3014 1.72531 84.677 2.10083C85.0525 2.47128 85.2402 2.96859 85.2402 3.59277C85.2402 4.20679 85.0525 4.70157 84.677 5.07709C84.3014 5.45261 83.8625 5.64037 83.3601 5.64037C82.741 5.64037 82.2386 5.36127 81.8529 4.80306V6.77455H81.2668ZM83.2535 5.11515C83.6494 5.11515 83.9792 4.97813 84.2431 4.70411C84.507 4.425 84.6389 4.05202 84.6389 3.58515C84.6389 3.13351 84.5044 2.76814 84.2355 2.48904C83.9665 2.20486 83.6392 2.06277 83.2535 2.06277C82.8729 2.06277 82.5406 2.2074 82.2564 2.49665C81.9722 2.7859 81.8301 3.15127 81.8301 3.59277C81.8301 4.03426 81.9722 4.39963 82.2564 4.68888C82.5406 4.97306 82.8729 5.11515 83.2535 5.11515ZM89.5871 5.04664C89.1913 5.44754 88.7016 5.64798 88.118 5.64798C87.5345 5.64798 87.0473 5.44754 86.6565 5.04664C86.2709 4.64575 86.078 4.16112 86.078 3.59277C86.078 3.02948 86.2734 2.54739 86.6642 2.1465C87.06 1.74053 87.5497 1.53755 88.1333 1.53755C88.7168 1.53755 89.204 1.73799 89.5947 2.13889C89.9855 2.53978 90.1809 3.02441 90.1809 3.59277C90.1809 4.15605 89.983 4.64067 89.5871 5.04664ZM88.1333 5.12276C88.5544 5.12276 88.8995 4.9756 89.1685 4.68127C89.4425 4.38694 89.5795 4.02411 89.5795 3.59277C89.5795 3.1665 89.4374 2.80366 89.1533 2.50426C88.8741 2.20486 88.5291 2.05516 88.118 2.05516C87.6968 2.05516 87.3518 2.20486 87.0828 2.50426C86.8139 2.79859 86.6794 3.16142 86.6794 3.59277C86.6794 4.01903 86.8189 4.38187 87.098 4.68127C87.3771 4.9756 87.7222 5.12276 88.1333 5.12276ZM90.6641 6.53858V5.03903H91.0904C91.4405 4.39963 91.6156 3.48874 91.6156 2.30635V1.62128H94.4168V5.03903H95.0105L94.9192 6.53858H94.432V5.55664H91.2502L91.1436 6.53858H90.6641ZM91.7145 5.03903H93.8307V2.13889H92.1789V2.68695C92.1789 3.6765 92.0241 4.46052 91.7145 5.03903ZM96.4232 6.79738C96.139 6.79738 95.8599 6.73141 95.5859 6.59947L95.7838 6.13515C95.9715 6.23156 96.1771 6.27977 96.4003 6.27977C96.5779 6.27977 96.7276 6.22395 96.8494 6.11231C96.9712 6.00574 97.0905 5.81545 97.2072 5.54142L95.4184 1.62128H96.0654L97.4965 4.90202L98.76 1.62128H99.3842L97.7324 5.68604C97.565 6.08694 97.3797 6.37112 97.1768 6.53858C96.9738 6.71112 96.7226 6.79738 96.4232 6.79738ZM100.311 5.55664V1.62128H100.898V3.88963L103.052 1.62128H103.775L102.131 3.32635L103.821 5.55664H103.128L101.727 3.75262L100.898 4.60515V5.55664H100.311ZM108.025 6.53858V5.55664H104.63V1.62128H105.216V5.03903H107.424V1.62128H108.01V5.03903H108.604L108.512 6.53858H108.025ZM109.463 5.55664V1.62128H110.05V5.55664H109.463ZM109.425 0.761131V0.114118H110.095V0.761131H109.425ZM110.747 1.02755V0.304415H111.433V1.02755H110.747ZM112.087 1.02755V0.304415H112.772V1.02755H112.087ZM111.463 5.55664V1.62128H112.049V5.55664H111.463ZM115.79 5.55664V0.228296H116.399L118.34 3.13605L120.281 0.228296H120.89V5.55664H120.289V1.24068L118.348 4.09515H118.318L116.377 1.24829V5.55664H115.79ZM123.472 5.64037C123.071 5.64037 122.726 5.53127 122.437 5.31306C122.148 5.09485 122.003 4.79037 122.003 4.39963C122.003 3.98859 122.155 3.67142 122.46 3.44814C122.764 3.22486 123.173 3.11321 123.685 3.11321C124.091 3.11321 124.492 3.16903 124.888 3.28068V3.15889C124.888 2.81381 124.786 2.54993 124.583 2.36725C124.38 2.18456 124.094 2.09322 123.723 2.09322C123.338 2.09322 122.939 2.1871 122.528 2.37486L122.353 1.89531C122.84 1.67202 123.317 1.56038 123.784 1.56038C124.342 1.56038 124.766 1.70501 125.055 1.99426C125.329 2.26829 125.466 2.65396 125.466 3.15127V5.55664H124.888V4.97052C124.538 5.41709 124.066 5.64037 123.472 5.64037ZM123.586 5.16843C123.952 5.16843 124.261 5.06948 124.515 4.87157C124.769 4.67366 124.895 4.41993 124.895 4.11038V3.745C124.51 3.63336 124.127 3.57754 123.746 3.57754C123.386 3.57754 123.104 3.65112 122.901 3.79829C122.698 3.94038 122.597 4.13575 122.597 4.3844C122.597 4.62291 122.691 4.81321 122.878 4.9553C123.071 5.09739 123.307 5.16843 123.586 5.16843ZM127.168 6.79738C126.884 6.79738 126.605 6.73141 126.331 6.59947L126.529 6.13515C126.717 6.23156 126.922 6.27977 127.145 6.27977C127.323 6.27977 127.473 6.22395 127.594 6.11231C127.716 6.00574 127.835 5.81545 127.952 5.54142L126.163 1.62128H126.81L128.241 4.90202L129.505 1.62128H130.129L128.477 5.68604C128.31 6.08694 128.125 6.37112 127.922 6.53858C127.719 6.71112 127.468 6.79738 127.168 6.79738ZM133.15 5.64037C132.531 5.64037 132.028 5.36127 131.643 4.80306V5.55664H131.057V-6.10325e-05H131.643V2.41292C132.038 1.82934 132.541 1.53755 133.15 1.53755C133.652 1.53755 134.091 1.72531 134.467 2.10083C134.842 2.47128 135.03 2.96859 135.03 3.59277C135.03 4.20679 134.842 4.70157 134.467 5.07709C134.091 5.45261 133.652 5.64037 133.15 5.64037ZM133.043 5.11515C133.439 5.11515 133.769 4.97813 134.033 4.70411C134.297 4.425 134.429 4.05202 134.429 3.58515C134.429 3.13351 134.294 2.76814 134.025 2.48904C133.756 2.20486 133.429 2.06277 133.043 2.06277C132.663 2.06277 132.33 2.2074 132.046 2.49665C131.762 2.7859 131.62 3.15127 131.62 3.59277C131.62 4.03426 131.762 4.39963 132.046 4.68888C132.33 4.97306 132.663 5.11515 133.043 5.11515ZM136.461 3.82873C136.502 4.22963 136.652 4.54933 136.911 4.78784C137.174 5.02127 137.487 5.13799 137.847 5.13799C138.319 5.13799 138.732 4.95276 139.088 4.58231L139.453 4.90963C139.011 5.40186 138.471 5.64798 137.832 5.64798C137.278 5.64798 136.812 5.45769 136.431 5.07709C136.055 4.69142 135.868 4.19664 135.868 3.59277C135.868 3.01933 136.048 2.53471 136.408 2.13889C136.768 1.73799 137.218 1.53755 137.755 1.53755C138.319 1.53755 138.765 1.73546 139.095 2.13128C139.425 2.5271 139.59 3.02441 139.59 3.62321C139.59 3.69933 139.587 3.76784 139.582 3.82873H136.461ZM136.461 3.3568H138.996C138.961 2.9762 138.834 2.66157 138.616 2.41292C138.402 2.15919 138.111 2.03232 137.74 2.03232C137.405 2.03232 137.119 2.15665 136.88 2.40531C136.642 2.65396 136.502 2.97113 136.461 3.3568ZM140.669 5.55664V-6.10325e-05H141.255V5.55664H140.669ZM142.669 5.55664V-6.10325e-05H143.255V5.55664H142.669ZM144.63 0.761131V0.114118H145.3V0.761131H144.63ZM144.669 5.55664V1.62128H145.255V5.55664H144.669ZM146.615 5.55664V1.62128H147.201V2.30635C147.511 1.79381 147.96 1.53755 148.548 1.53755C149.015 1.53755 149.383 1.68217 149.652 1.97143C149.921 2.2556 150.055 2.6362 150.055 3.11321V5.55664H149.469V3.25784C149.469 2.88739 149.373 2.59814 149.18 2.39008C148.992 2.17695 148.726 2.07038 148.381 2.07038C148.041 2.07038 147.759 2.18456 147.536 2.41292C147.313 2.64128 147.201 2.93814 147.201 3.30351V5.55664H146.615ZM151.656 3.82873C151.696 4.22963 151.846 4.54933 152.105 4.78784C152.369 5.02127 152.681 5.13799 153.041 5.13799C153.513 5.13799 153.926 4.95276 154.282 4.58231L154.647 4.90963C154.206 5.40186 153.665 5.64798 153.026 5.64798C152.473 5.64798 152.006 5.45769 151.625 5.07709C151.25 4.69142 151.062 4.19664 151.062 3.59277C151.062 3.01933 151.242 2.53471 151.602 2.13889C151.963 1.73799 152.412 1.53755 152.95 1.53755C153.513 1.53755 153.959 1.73546 154.289 2.13128C154.619 2.5271 154.784 3.02441 154.784 3.62321C154.784 3.69933 154.782 3.76784 154.776 3.82873H151.656ZM151.656 3.3568H154.19C154.155 2.9762 154.028 2.66157 153.81 2.41292C153.597 2.15919 153.305 2.03232 152.934 2.03232C152.599 2.03232 152.313 2.15665 152.074 2.40531C151.836 2.65396 151.696 2.97113 151.656 3.3568ZM158.191 5.55664V0.228296H158.754L162.111 4.49858V0.228296H162.697V5.55664H162.218L158.777 1.1874V5.55664H158.191ZM164.456 3.82873C164.497 4.22963 164.646 4.54933 164.905 4.78784C165.169 5.02127 165.481 5.13799 165.841 5.13799C166.313 5.13799 166.727 4.95276 167.082 4.58231L167.448 4.90963C167.006 5.40186 166.466 5.64798 165.826 5.64798C165.273 5.64798 164.806 5.45769 164.426 5.07709C164.05 4.69142 163.862 4.19664 163.862 3.59277C163.862 3.01933 164.042 2.53471 164.403 2.13889C164.763 1.73799 165.212 1.53755 165.75 1.53755C166.313 1.53755 166.76 1.73546 167.09 2.13128C167.42 2.5271 167.585 3.02441 167.585 3.62321C167.585 3.69933 167.582 3.76784 167.577 3.82873H164.456ZM164.456 3.3568H166.991C166.955 2.9762 166.828 2.66157 166.61 2.41292C166.397 2.15919 166.105 2.03232 165.735 2.03232C165.4 2.03232 165.113 2.15665 164.875 2.40531C164.636 2.65396 164.497 2.97113 164.456 3.3568ZM169.46 5.58709L168.082 1.62128H168.707L169.742 4.78022L170.8 1.60605H171.287L172.353 4.78022L173.388 1.62128H173.997L172.612 5.58709H172.102L171.043 2.48142L169.978 5.58709H169.46ZM179.022 5.55664V3.44814L176.807 0.228296H177.537L179.334 2.89247L181.146 0.228296H181.846L179.631 3.44053V5.55664H179.022ZM185.13 5.04664C184.734 5.44754 184.245 5.64798 183.661 5.64798C183.077 5.64798 182.59 5.44754 182.2 5.04664C181.814 4.64575 181.621 4.16112 181.621 3.59277C181.621 3.02948 181.816 2.54739 182.207 2.1465C182.603 1.74053 183.093 1.53755 183.676 1.53755C184.26 1.53755 184.747 1.73799 185.138 2.13889C185.528 2.53978 185.724 3.02441 185.724 3.59277C185.724 4.15605 185.526 4.64067 185.13 5.04664ZM183.676 5.12276C184.097 5.12276 184.442 4.9756 184.711 4.68127C184.985 4.38694 185.122 4.02411 185.122 3.59277C185.122 3.1665 184.98 2.80366 184.696 2.50426C184.417 2.20486 184.072 2.05516 183.661 2.05516C183.24 2.05516 182.895 2.20486 182.626 2.50426C182.357 2.79859 182.222 3.16142 182.222 3.59277C182.222 4.01903 182.362 4.38187 182.641 4.68127C182.92 4.9756 183.265 5.12276 183.676 5.12276ZM186.786 5.55664V1.62128H187.372V2.64889C187.524 2.30889 187.74 2.0374 188.019 1.83441C188.298 1.63143 188.618 1.53755 188.978 1.55277V2.18456H188.932C188.48 2.18456 188.108 2.34187 187.813 2.6565C187.519 2.97113 187.372 3.41515 187.372 3.98859V5.55664H186.786ZM189.87 5.55664V-6.10325e-05H190.457V3.83635L192.58 1.62128H193.311L191.659 3.31112L193.364 5.55664H192.664L191.256 3.72217L190.457 4.52903V5.55664H189.87ZM197.735 5.64798C197.131 5.64798 196.588 5.45261 196.106 5.06187L196.403 4.62799C196.803 4.96799 197.242 5.13799 197.719 5.13799C197.988 5.13799 198.217 5.07709 198.405 4.9553C198.597 4.82843 198.694 4.6559 198.694 4.43769C198.694 4.2347 198.608 4.07739 198.435 3.96575C198.262 3.84903 198.019 3.79068 197.704 3.79068H197.179V3.31112H197.712C197.971 3.31112 198.181 3.25023 198.344 3.12844C198.506 3.00157 198.587 2.83665 198.587 2.63366C198.587 2.45605 198.506 2.31396 198.344 2.2074C198.186 2.10083 197.983 2.04755 197.735 2.04755C197.268 2.04755 196.869 2.17949 196.54 2.44337L196.25 2.03232C196.677 1.70247 197.184 1.53755 197.773 1.53755C198.209 1.53755 198.554 1.6365 198.808 1.83441C199.067 2.02725 199.196 2.27844 199.196 2.58799C199.196 3.01933 198.986 3.32127 198.564 3.49381C199.052 3.66635 199.295 3.98859 199.295 4.46052C199.295 4.79037 199.153 5.07202 198.869 5.30545C198.585 5.5338 198.207 5.64798 197.735 5.64798ZM206.355 4.84873C205.939 5.38157 205.396 5.64798 204.726 5.64798C204.057 5.64798 203.514 5.3841 203.097 4.85634C202.686 4.32351 202.481 3.66888 202.481 2.89247C202.481 2.1262 202.689 1.47665 203.105 0.943817C203.526 0.405908 204.072 0.136954 204.742 0.136954C205.411 0.136954 205.952 0.403371 206.363 0.936205C206.774 1.46396 206.98 2.11605 206.98 2.89247C206.98 3.65874 206.771 4.31082 206.355 4.84873ZM203.562 4.45291C203.866 4.88425 204.26 5.09993 204.742 5.09993C205.224 5.09993 205.612 4.88679 205.906 4.46052C206.206 4.02918 206.355 3.5065 206.355 2.89247C206.355 2.28859 206.203 1.77098 205.899 1.33964C205.599 0.90322 205.208 0.685012 204.726 0.685012C204.244 0.685012 203.854 0.900683 203.554 1.33203C203.255 1.75829 203.105 2.27844 203.105 2.89247C203.105 3.49635 203.257 4.0165 203.562 4.45291ZM208.813 5.55664V0.814414L207.808 1.1265L207.663 0.63934L208.965 0.190237H209.407V5.55664H208.813ZM210.764 5.55664V4.75739H211.465V5.55664H210.764ZM216.391 4.84873C215.974 5.38157 215.431 5.64798 214.762 5.64798C214.092 5.64798 213.549 5.3841 213.133 4.85634C212.722 4.32351 212.516 3.66888 212.516 2.89247C212.516 2.1262 212.724 1.47665 213.14 0.943817C213.561 0.405908 214.107 0.136954 214.777 0.136954C215.447 0.136954 215.987 0.403371 216.398 0.936205C216.809 1.46396 217.015 2.11605 217.015 2.89247C217.015 3.65874 216.807 4.31082 216.391 4.84873ZM213.597 4.45291C213.901 4.88425 214.295 5.09993 214.777 5.09993C215.259 5.09993 215.647 4.88679 215.941 4.46052C216.241 4.02918 216.391 3.5065 216.391 2.89247C216.391 2.28859 216.238 1.77098 215.934 1.33964C215.634 0.90322 215.244 0.685012 214.762 0.685012C214.28 0.685012 213.889 0.900683 213.589 1.33203C213.29 1.75829 213.14 2.27844 213.14 2.89247C213.14 3.49635 213.293 4.0165 213.597 4.45291ZM218.848 5.55664V0.814414L217.843 1.1265L217.699 0.63934L219 0.190237H219.442V5.55664H218.848ZM220.8 5.55664V4.75739H221.5V5.55664H220.8ZM222.445 5.55664V5.09231L224.378 3.38724C224.794 3.02187 225.084 2.71739 225.246 2.47381C225.408 2.23023 225.49 1.9765 225.49 1.71262C225.49 1.40814 225.386 1.16203 225.177 0.974264C224.969 0.786504 224.716 0.692623 224.416 0.692623C224.127 0.692623 223.871 0.766205 223.647 0.913369C223.429 1.06053 223.209 1.29143 222.985 1.60605L222.544 1.28635C222.803 0.900683 223.077 0.616504 223.366 0.433818C223.655 0.246058 224.02 0.152177 224.462 0.152177C224.939 0.152177 225.332 0.296804 225.642 0.586057C225.956 0.870235 226.114 1.23307 226.114 1.67456C226.114 2.03993 226.015 2.36471 225.817 2.64889C225.619 2.93307 225.269 3.29844 224.766 3.745L223.343 5.00858H226.167V5.55664H222.445ZM230.983 4.84873C230.566 5.38157 230.023 5.64798 229.354 5.64798C228.684 5.64798 228.141 5.3841 227.725 4.85634C227.314 4.32351 227.108 3.66888 227.108 2.89247C227.108 2.1262 227.316 1.47665 227.732 0.943817C228.153 0.405908 228.699 0.136954 229.369 0.136954C230.039 0.136954 230.579 0.403371 230.99 0.936205C231.401 1.46396 231.607 2.11605 231.607 2.89247C231.607 3.65874 231.399 4.31082 230.983 4.84873ZM228.189 4.45291C228.493 4.88425 228.887 5.09993 229.369 5.09993C229.851 5.09993 230.239 4.88679 230.533 4.46052C230.833 4.02918 230.983 3.5065 230.983 2.89247C230.983 2.28859 230.83 1.77098 230.526 1.33964C230.226 0.90322 229.836 0.685012 229.354 0.685012C228.872 0.685012 228.481 0.900683 228.181 1.33203C227.882 1.75829 227.732 2.27844 227.732 2.89247C227.732 3.49635 227.885 4.0165 228.189 4.45291ZM232.443 5.55664V5.09231L234.376 3.38724C234.792 3.02187 235.082 2.71739 235.244 2.47381C235.406 2.23023 235.488 1.9765 235.488 1.71262C235.488 1.40814 235.384 1.16203 235.176 0.974264C234.968 0.786504 234.714 0.692623 234.414 0.692623C234.125 0.692623 233.869 0.766205 233.646 0.913369C233.427 1.06053 233.207 1.29143 232.983 1.60605L232.542 1.28635C232.801 0.900683 233.075 0.616504 233.364 0.433818C233.653 0.246058 234.019 0.152177 234.46 0.152177C234.937 0.152177 235.33 0.296804 235.64 0.586057C235.955 0.870235 236.112 1.23307 236.112 1.67456C236.112 2.03993 236.013 2.36471 235.815 2.64889C235.617 2.93307 235.267 3.29844 234.765 3.745L233.341 5.00858H236.165V5.55664H232.443ZM239.169 5.64798C238.53 5.64798 238.025 5.43739 237.654 5.01619C237.284 4.595 237.099 3.93276 237.099 3.02948C237.099 2.19725 237.296 1.5071 237.692 0.959041C238.093 0.410983 238.634 0.136954 239.314 0.136954C239.867 0.136954 240.392 0.339938 240.889 0.745907L240.539 1.21023C240.123 0.860086 239.704 0.685012 239.283 0.685012C238.811 0.685012 238.433 0.900683 238.149 1.33203C237.865 1.76337 237.723 2.32411 237.723 3.01426V3.03709C238.093 2.49411 238.598 2.22262 239.238 2.22262C239.75 2.22262 240.184 2.37486 240.539 2.67933C240.899 2.98381 241.08 3.38217 241.08 3.87441C241.08 4.38694 240.897 4.81067 240.532 5.1456C240.166 5.48052 239.712 5.64798 239.169 5.64798ZM239.177 5.11515C239.562 5.11515 239.872 4.99843 240.105 4.765C240.344 4.53157 240.463 4.23724 240.463 3.88202C240.463 3.55217 240.341 3.28068 240.098 3.06754C239.854 2.84933 239.542 2.74023 239.161 2.74023C238.776 2.74023 238.456 2.85948 238.202 3.09799C237.954 3.33142 237.829 3.60545 237.829 3.92008C237.829 4.26008 237.956 4.54426 238.21 4.77261C238.464 5.00097 238.786 5.11515 239.177 5.11515ZM242.149 5.55664V4.75739H242.849V5.55664H242.149ZM16.7053 12.5566V7.2283H18.9737C19.5979 7.2283 20.0622 7.38561 20.3667 7.70024C20.595 7.93874 20.7092 8.228 20.7092 8.56799C20.7092 9.1465 20.4276 9.55754 19.8643 9.80113C20.6255 10.0295 21.0061 10.4634 21.0061 11.1028C21.0061 11.5544 20.831 11.9096 20.4809 12.1684C20.1307 12.4272 19.6613 12.5566 19.0727 12.5566H16.7053ZM17.2991 12.0162H19.0879C19.4938 12.0162 19.8135 11.9325 20.047 11.765C20.2804 11.5925 20.3971 11.354 20.3971 11.0495C20.3971 10.7552 20.2753 10.5293 20.0318 10.372C19.7932 10.2147 19.4431 10.136 18.9813 10.136H17.2991V12.0162ZM17.2991 9.60322H18.8747C19.2452 9.60322 19.5421 9.51948 19.7653 9.35202C19.9886 9.18456 20.1003 8.94605 20.1003 8.6365C20.1003 8.36755 19.9962 8.15695 19.7882 8.00471C19.5852 7.8474 19.2959 7.76874 18.9204 7.76874H17.2991V9.60322ZM22.153 12.5566V8.62128H22.7392V12.5566H22.153ZM22.115 7.76113V7.11412H22.7848V7.76113H22.115ZM25.3477 12.648C24.7439 12.648 24.2009 12.4526 23.7188 12.0619L24.0156 11.628C24.4165 11.968 24.8555 12.138 25.3325 12.138C25.6015 12.138 25.8298 12.0771 26.0176 11.9553C26.2104 11.8284 26.3068 11.6559 26.3068 11.4377C26.3068 11.2347 26.2206 11.0774 26.048 10.9657C25.8755 10.849 25.6319 10.7907 25.3173 10.7907H24.7921V10.3111H25.3249C25.5837 10.3111 25.7943 10.2502 25.9567 10.1284C26.1191 10.0016 26.2003 9.83665 26.2003 9.63366C26.2003 9.45605 26.1191 9.31396 25.9567 9.2074C25.7994 9.10083 25.5964 9.04755 25.3477 9.04755C24.8809 9.04755 24.4825 9.17949 24.1527 9.44337L23.8634 9.03232C24.2897 8.70247 24.7971 8.53755 25.3858 8.53755C25.8222 8.53755 26.1673 8.6365 26.421 8.83441C26.6798 9.02725 26.8092 9.27844 26.8092 9.58799C26.8092 10.0193 26.5986 10.3213 26.1774 10.4938C26.6646 10.6663 26.9082 10.9886 26.9082 11.4605C26.9082 11.7904 26.7661 12.072 26.4819 12.3054C26.1977 12.5338 25.8197 12.648 25.3477 12.648ZM28.6035 13.7974C28.3193 13.7974 28.0402 13.7314 27.7662 13.5995L27.9641 13.1351C28.1519 13.2316 28.3574 13.2798 28.5807 13.2798C28.7583 13.2798 28.908 13.224 29.0298 13.1123C29.1515 13.0057 29.2708 12.8154 29.3875 12.5414L27.5987 8.62128H28.2457L29.6768 11.902L30.9404 8.62128H31.5645L29.9127 12.686C29.7453 13.0869 29.5601 13.3711 29.3571 13.5386C29.1541 13.7111 28.9029 13.7974 28.6035 13.7974ZM33.664 12.6404C33.2632 12.6404 32.9181 12.5313 32.6288 12.3131C32.3396 12.0949 32.1949 11.7904 32.1949 11.3996C32.1949 10.9886 32.3472 10.6714 32.6517 10.4481C32.9561 10.2249 33.3646 10.1132 33.8772 10.1132C34.2832 10.1132 34.684 10.169 35.0799 10.2807V10.1589C35.0799 9.81381 34.9784 9.54993 34.7754 9.36725C34.5724 9.18456 34.2857 9.09322 33.9152 9.09322C33.5296 9.09322 33.1312 9.1871 32.7202 9.37486L32.5451 8.89531C33.0323 8.67202 33.5093 8.56038 33.9761 8.56038C34.5343 8.56038 34.9581 8.70501 35.2473 8.99426C35.5214 9.26829 35.6584 9.65396 35.6584 10.1513V12.5566H35.0799V11.9705C34.7297 12.4171 34.2578 12.6404 33.664 12.6404ZM33.7782 12.1684C34.1436 12.1684 34.4532 12.0695 34.7069 11.8716C34.9606 11.6737 35.0875 11.4199 35.0875 11.1104V10.745C34.7018 10.6334 34.3187 10.5775 33.9381 10.5775C33.5778 10.5775 33.2961 10.6511 33.0932 10.7983C32.8902 10.9404 32.7887 11.1357 32.7887 11.3844C32.7887 11.6229 32.8826 11.8132 33.0703 11.9553C33.2632 12.0974 33.4991 12.1684 33.7782 12.1684ZM36.7096 12.6175C36.5574 12.6175 36.4 12.5972 36.2377 12.5566L36.3062 12.0543C36.4229 12.0898 36.5168 12.1075 36.5878 12.1075C36.6994 12.1075 36.7908 12.0949 36.8618 12.0695C36.9329 12.039 37.009 11.9654 37.0902 11.8487C37.1765 11.7269 37.2424 11.5569 37.2881 11.3387C37.3338 11.1205 37.3718 10.811 37.4023 10.4101C37.4378 10.0092 37.4556 9.52202 37.4556 8.94859V8.62128H40.2415V12.5566H39.6554V9.13889H38.0112V9.23023C38.0112 9.82904 37.9884 10.339 37.9427 10.7602C37.897 11.1814 37.8387 11.5113 37.7676 11.7498C37.7017 11.9883 37.6078 12.1735 37.486 12.3054C37.3642 12.4374 37.245 12.5211 37.1282 12.5566C37.0166 12.5972 36.8771 12.6175 36.7096 12.6175ZM41.6066 12.5566V8.62128H42.1927V12.5566H41.6066ZM41.5685 7.76113V7.11412H42.2383V7.76113H41.5685ZM44.8012 12.648C44.1974 12.648 43.6544 12.4526 43.1723 12.0619L43.4692 11.628C43.8701 11.968 44.309 12.138 44.786 12.138C45.055 12.138 45.2833 12.0771 45.4711 11.9553C45.6639 11.8284 45.7603 11.6559 45.7603 11.4377C45.7603 11.2347 45.6741 11.0774 45.5015 10.9657C45.329 10.849 45.0854 10.7907 44.7708 10.7907H44.2456V10.3111H44.7784C45.0372 10.3111 45.2478 10.2502 45.4102 10.1284C45.5726 10.0016 45.6538 9.83665 45.6538 9.63366C45.6538 9.45605 45.5726 9.31396 45.4102 9.2074C45.2529 9.10083 45.0499 9.04755 44.8012 9.04755C44.3344 9.04755 43.936 9.17949 43.6062 9.44337L43.3169 9.03232C43.7432 8.70247 44.2506 8.53755 44.8393 8.53755C45.2757 8.53755 45.6208 8.6365 45.8745 8.83441C46.1333 9.02725 46.2627 9.27844 46.2627 9.58799C46.2627 10.0193 46.0521 10.3213 45.6309 10.4938C46.1181 10.6663 46.3617 10.9886 46.3617 11.4605C46.3617 11.7904 46.2196 12.072 45.9354 12.3054C45.6512 12.5338 45.2732 12.648 44.8012 12.648ZM48.6203 12.6404C48.2194 12.6404 47.8743 12.5313 47.5851 12.3131C47.2958 12.0949 47.1512 11.7904 47.1512 11.3996C47.1512 10.9886 47.3034 10.6714 47.6079 10.4481C47.9124 10.2249 48.3209 10.1132 48.8334 10.1132C49.2394 10.1132 49.6403 10.169 50.0361 10.2807V10.1589C50.0361 9.81381 49.9346 9.54993 49.7316 9.36725C49.5286 9.18456 49.2419 9.09322 48.8715 9.09322C48.4858 9.09322 48.0874 9.1871 47.6764 9.37486L47.5013 8.89531C47.9885 8.67202 48.4655 8.56038 48.9324 8.56038C49.4906 8.56038 49.9143 8.70501 50.2036 8.99426C50.4776 9.26829 50.6146 9.65396 50.6146 10.1513V12.5566H50.0361V11.9705C49.686 12.4171 49.214 12.6404 48.6203 12.6404ZM48.7345 12.1684C49.0998 12.1684 49.4094 12.0695 49.6631 11.8716C49.9168 11.6737 50.0437 11.4199 50.0437 11.1104V10.745C49.658 10.6334 49.2749 10.5775 48.8943 10.5775C48.534 10.5775 48.2524 10.6511 48.0494 10.7983C47.8464 10.9404 47.7449 11.1357 47.7449 11.3844C47.7449 11.6229 47.8388 11.8132 48.0266 11.9553C48.2194 12.0974 48.4554 12.1684 48.7345 12.1684ZM55.251 13.5386V12.5566H51.8561V8.62128H52.4422V12.039H54.6497V8.62128H55.2358V12.039H55.8295L55.7382 13.5386H55.251ZM56.6892 12.5566V8.62128H57.2753V12.5566H56.6892ZM56.6511 7.76113V7.11412H57.3209V7.76113H56.6511ZM58.2853 12.5566L59.488 11.0343C59.1785 10.9632 58.9247 10.8237 58.7268 10.6156C58.534 10.4075 58.4376 10.1513 58.4376 9.8468C58.4376 9.48142 58.5695 9.1871 58.8334 8.96381C59.0973 8.73546 59.4601 8.62128 59.9219 8.62128H61.7716V12.5566H61.1855V11.1256H60.097C60.0513 11.1865 59.894 11.3946 59.625 11.7498C59.3561 12.105 59.1506 12.374 59.0085 12.5566H58.2853ZM59.9676 10.6308H61.1855V9.13889H59.9524C59.6631 9.13889 59.4347 9.20486 59.2673 9.3368C59.1049 9.46366 59.0237 9.64128 59.0237 9.86963C59.0237 10.1031 59.11 10.2883 59.2825 10.4253C59.4601 10.5623 59.6885 10.6308 59.9676 10.6308ZM67.1364 12.648C66.568 12.648 66.0885 12.4475 65.6977 12.0466C65.3121 11.6407 65.1192 11.156 65.1192 10.5928C65.1192 10.0295 65.3121 9.54739 65.6977 9.1465C66.0885 8.74053 66.568 8.53755 67.1364 8.53755C67.7453 8.53755 68.2706 8.77098 68.7121 9.23784L68.3391 9.63366C67.9737 9.24799 67.5703 9.05516 67.1288 9.05516C66.733 9.05516 66.398 9.20486 66.124 9.50426C65.8551 9.79859 65.7206 10.1614 65.7206 10.5928C65.7206 11.019 65.8576 11.3819 66.1316 11.6813C66.4107 11.9756 66.7558 12.1228 67.1668 12.1228C67.588 12.1228 67.9839 11.9249 68.3543 11.529L68.7425 11.8868C68.2858 12.3943 67.7504 12.648 67.1364 12.648ZM71.4317 12.648C70.8786 12.648 70.4117 12.4577 70.0311 12.0771C69.6556 11.6914 69.4678 11.1966 69.4678 10.5928C69.4678 10.0193 69.648 9.53471 70.0083 9.13889C70.3686 8.73799 70.8177 8.53755 71.3556 8.53755C71.9189 8.53755 72.3654 8.73546 72.6953 9.13128C73.0251 9.5271 73.1901 10.0244 73.1901 10.6232C73.1901 10.6993 73.1875 10.7678 73.1825 10.8287H70.0616C70.1022 11.2296 70.2519 11.5493 70.5107 11.7878C70.7746 12.0213 71.0866 12.138 71.4469 12.138C71.9189 12.138 72.3325 11.9528 72.6877 11.5823L73.0531 11.9096C72.6116 12.4019 72.0711 12.648 71.4317 12.648ZM70.0616 10.3568H72.5963C72.5608 9.9762 72.434 9.66157 72.2157 9.41292C72.0026 9.15919 71.7108 9.03232 71.3404 9.03232C71.0055 9.03232 70.7187 9.15665 70.4802 9.40531C70.2417 9.65396 70.1022 9.97113 70.0616 10.3568ZM74.2161 13.7745V8.62128H74.8023V9.41292C75.1981 8.82934 75.7005 8.53755 76.3094 8.53755C76.8118 8.53755 77.2508 8.72531 77.6263 9.10083C78.0018 9.47128 78.1896 9.96859 78.1896 10.5928C78.1896 11.2068 78.0018 11.7016 77.6263 12.0771C77.2508 12.4526 76.8118 12.6404 76.3094 12.6404C75.6903 12.6404 75.1879 12.3613 74.8023 11.8031V13.7745H74.2161ZM76.2028 12.1151C76.5987 12.1151 76.9285 11.9781 77.1924 11.7041C77.4563 11.425 77.5882 11.052 77.5882 10.5852C77.5882 10.1335 77.4537 9.76814 77.1848 9.48904C76.9158 9.20486 76.5885 9.06277 76.2028 9.06277C75.8222 9.06277 75.4899 9.2074 75.2057 9.49665C74.9215 9.7859 74.7794 10.1513 74.7794 10.5928C74.7794 11.0343 74.9215 11.3996 75.2057 11.6889C75.4899 11.9731 75.8222 12.1151 76.2028 12.1151ZM80.9912 12.648C80.4381 12.648 79.9712 12.4577 79.5906 12.0771C79.2151 11.6914 79.0273 11.1966 79.0273 10.5928C79.0273 10.0193 79.2075 9.53471 79.5678 9.13889C79.9281 8.73799 80.3772 8.53755 80.9151 8.53755C81.4784 8.53755 81.925 8.73546 82.2548 9.13128C82.5847 9.5271 82.7496 10.0244 82.7496 10.6232C82.7496 10.6993 82.747 10.7678 82.742 10.8287H79.6211C79.6617 11.2296 79.8114 11.5493 80.0702 11.7878C80.3341 12.0213 80.6461 12.138 81.0064 12.138C81.4784 12.138 81.892 11.9528 82.2472 11.5823L82.6126 11.9096C82.1711 12.4019 81.6306 12.648 80.9912 12.648ZM79.6211 10.3568H82.1558C82.1203 9.9762 81.9935 9.66157 81.7752 9.41292C81.5621 9.15919 81.2703 9.03232 80.8999 9.03232C80.565 9.03232 80.2782 9.15665 80.0397 9.40531C79.8012 9.65396 79.6617 9.97113 79.6211 10.3568ZM83.1971 13.5386V12.039H83.6234C83.9735 11.3996 84.1486 10.4887 84.1486 9.30635V8.62128H86.9498V12.039H87.5435L87.4522 13.5386H86.965V12.5566H83.7832L83.6767 13.5386H83.1971ZM84.2476 12.039H86.3637V9.13889H84.7119V9.68695C84.7119 10.6765 84.5571 11.4605 84.2476 12.039ZM88.3473 12.5566V8.62128H88.9334V10.3187H91.2017V8.62128H91.7878V12.5566H91.2017V10.8363H88.9334V12.5566H88.3473ZM93.0973 12.5566V8.62128H93.6834V10.098H94.7338C95.1905 10.098 95.5635 10.1969 95.8528 10.3949C96.142 10.5877 96.2867 10.882 96.2867 11.2778C96.2867 11.6686 96.1522 11.9807 95.8832 12.2141C95.6143 12.4425 95.254 12.5566 94.8023 12.5566H93.0973ZM93.6834 12.039H94.7491C95.0485 12.039 95.2794 11.9756 95.4417 11.8487C95.6092 11.7219 95.6929 11.5366 95.6929 11.2931C95.6929 11.0698 95.6067 10.8998 95.4341 10.7831C95.2667 10.6613 95.0307 10.6004 94.7262 10.6004H93.6834V12.039ZM100.459 12.0466C100.063 12.4475 99.5731 12.648 98.9895 12.648C98.406 12.648 97.9188 12.4475 97.5281 12.0466C97.1424 11.6457 96.9495 11.1611 96.9495 10.5928C96.9495 10.0295 97.1449 9.54739 97.5357 9.1465C97.9315 8.74053 98.4212 8.53755 99.0048 8.53755C99.5883 8.53755 100.076 8.73799 100.466 9.13889C100.857 9.53978 101.052 10.0244 101.052 10.5928C101.052 11.156 100.854 11.6407 100.459 12.0466ZM99.0048 12.1228C99.426 12.1228 99.771 11.9756 100.04 11.6813C100.314 11.3869 100.451 11.0241 100.451 10.5928C100.451 10.1665 100.309 9.80366 100.025 9.50426C99.7457 9.20486 99.4006 9.05516 98.9895 9.05516C98.5684 9.05516 98.2233 9.20486 97.9543 9.50426C97.6854 9.79859 97.5509 10.1614 97.5509 10.5928C97.5509 11.019 97.6904 11.3819 97.9695 11.6813C98.2487 11.9756 98.5937 12.1228 99.0048 12.1228ZM102.114 12.5566V8.62128H104.786V9.13889H102.7V12.5566H102.114ZM108.903 12.0466C108.507 12.4475 108.018 12.648 107.434 12.648C106.85 12.648 106.363 12.4475 105.973 12.0466C105.587 11.6457 105.394 11.1611 105.394 10.5928C105.394 10.0295 105.589 9.54739 105.98 9.1465C106.376 8.74053 106.866 8.53755 107.449 8.53755C108.033 8.53755 108.52 8.73799 108.911 9.13889C109.301 9.53978 109.497 10.0244 109.497 10.5928C109.497 11.156 109.299 11.6407 108.903 12.0466ZM107.449 12.1228C107.87 12.1228 108.216 11.9756 108.484 11.6813C108.758 11.3869 108.896 11.0241 108.896 10.5928C108.896 10.1665 108.753 9.80366 108.469 9.50426C108.19 9.20486 107.845 9.05516 107.434 9.05516C107.013 9.05516 106.668 9.20486 106.399 9.50426C106.13 9.79859 105.995 10.1614 105.995 10.5928C105.995 11.019 106.135 11.3819 106.414 11.6813C106.693 11.9756 107.038 12.1228 107.449 12.1228ZM112.841 13.7745V8.62128H113.427V9.41292C113.823 8.82934 114.325 8.53755 114.934 8.53755C115.436 8.53755 115.875 8.72531 116.251 9.10083C116.626 9.47128 116.814 9.96859 116.814 10.5928C116.814 11.2068 116.626 11.7016 116.251 12.0771C115.875 12.4526 115.436 12.6404 114.934 12.6404C114.315 12.6404 113.812 12.3613 113.427 11.8031V13.7745H112.841ZM114.827 12.1151C115.223 12.1151 115.553 11.9781 115.817 11.7041C116.081 11.425 116.213 11.052 116.213 10.5852C116.213 10.1335 116.078 9.76814 115.809 9.48904C115.54 9.20486 115.213 9.06277 114.827 9.06277C114.447 9.06277 114.114 9.2074 113.83 9.49665C113.546 9.7859 113.404 10.1513 113.404 10.5928C113.404 11.0343 113.546 11.3996 113.83 11.6889C114.114 11.9731 114.447 12.1151 114.827 12.1151ZM119.616 12.648C119.063 12.648 118.596 12.4577 118.215 12.0771C117.84 11.6914 117.652 11.1966 117.652 10.5928C117.652 10.0193 117.832 9.53471 118.192 9.13889C118.553 8.73799 119.002 8.53755 119.54 8.53755C120.103 8.53755 120.55 8.73546 120.879 9.13128C121.209 9.5271 121.374 10.0244 121.374 10.6232C121.374 10.6993 121.372 10.7678 121.367 10.8287H118.246C118.286 11.2296 118.436 11.5493 118.695 11.7878C118.959 12.0213 119.271 12.138 119.631 12.138C120.103 12.138 120.517 11.9528 120.872 11.5823L121.237 11.9096C120.796 12.4019 120.255 12.648 119.616 12.648ZM118.246 10.3568H120.78C120.745 9.9762 120.618 9.66157 120.4 9.41292C120.187 9.15919 119.895 9.03232 119.524 9.03232C119.19 9.03232 118.903 9.15665 118.664 9.40531C118.426 9.65396 118.286 9.97113 118.246 10.3568ZM123.649 12.648C123.045 12.648 122.502 12.4526 122.02 12.0619L122.316 11.628C122.717 11.968 123.156 12.138 123.633 12.138C123.902 12.138 124.131 12.0771 124.318 11.9553C124.511 11.8284 124.608 11.6559 124.608 11.4377C124.608 11.2347 124.521 11.0774 124.349 10.9657C124.176 10.849 123.933 10.7907 123.618 10.7907H123.093V10.3111H123.626C123.885 10.3111 124.095 10.2502 124.257 10.1284C124.42 10.0016 124.501 9.83665 124.501 9.63366C124.501 9.45605 124.42 9.31396 124.257 9.2074C124.1 9.10083 123.897 9.04755 123.649 9.04755C123.182 9.04755 122.783 9.17949 122.453 9.44337L122.164 9.03232C122.59 8.70247 123.098 8.53755 123.687 8.53755C124.123 8.53755 124.468 8.6365 124.722 8.83441C124.981 9.02725 125.11 9.27844 125.11 9.58799C125.11 10.0193 124.899 10.3213 124.478 10.4938C124.965 10.6663 125.209 10.9886 125.209 11.4605C125.209 11.7904 125.067 12.072 124.783 12.3054C124.499 12.5338 124.12 12.648 123.649 12.648ZM126.904 13.7974C126.62 13.7974 126.341 13.7314 126.067 13.5995L126.265 13.1351C126.453 13.2316 126.658 13.2798 126.881 13.2798C127.059 13.2798 127.209 13.224 127.331 13.1123C127.452 13.0057 127.572 12.8154 127.688 12.5414L125.9 8.62128H126.547L127.978 11.902L129.241 8.62128H129.865L128.214 12.686C128.046 13.0869 127.861 13.3711 127.658 13.5386C127.455 13.7111 127.204 13.7974 126.904 13.7974ZM130.602 12.6175C130.45 12.6175 130.293 12.5972 130.13 12.5566L130.199 12.0543C130.316 12.0898 130.409 12.1075 130.481 12.1075C130.592 12.1075 130.684 12.0949 130.755 12.0695C130.826 12.039 130.902 11.9654 130.983 11.8487C131.069 11.7269 131.135 11.5569 131.181 11.3387C131.227 11.1205 131.265 10.811 131.295 10.4101C131.331 10.0092 131.348 9.52202 131.348 8.94859V8.62128H134.134V12.5566H133.548V9.13889H131.904V9.23023C131.904 9.82904 131.881 10.339 131.835 10.7602C131.79 11.1814 131.731 11.5113 131.66 11.7498C131.594 11.9883 131.501 12.1735 131.379 12.3054C131.257 12.4374 131.138 12.5211 131.021 12.5566C130.909 12.5972 130.77 12.6175 130.602 12.6175ZM135.446 12.5566V8.62128H136.032V10.098H137.083C137.539 10.098 137.912 10.1969 138.202 10.3949C138.491 10.5877 138.635 10.882 138.635 11.2778C138.635 11.6686 138.501 11.9807 138.232 12.2141C137.963 12.4425 137.603 12.5566 137.151 12.5566H135.446ZM136.032 12.039H137.098C137.397 12.039 137.628 11.9756 137.79 11.8487C137.958 11.7219 138.042 11.5366 138.042 11.2931C138.042 11.0698 137.955 10.8998 137.783 10.7831C137.615 10.6613 137.379 10.6004 137.075 10.6004H136.032V12.039ZM140.493 12.5566V9.13889H139.085V8.62128H142.495V9.13889H141.087V12.5566H140.493ZM144.52 12.6404C144.119 12.6404 143.774 12.5313 143.485 12.3131C143.196 12.0949 143.051 11.7904 143.051 11.3996C143.051 10.9886 143.203 10.6714 143.508 10.4481C143.812 10.2249 144.221 10.1132 144.733 10.1132C145.139 10.1132 145.54 10.169 145.936 10.2807V10.1589C145.936 9.81381 145.834 9.54993 145.631 9.36725C145.428 9.18456 145.142 9.09322 144.771 9.09322C144.386 9.09322 143.987 9.1871 143.576 9.37486L143.401 8.89531C143.888 8.67202 144.365 8.56038 144.832 8.56038C145.39 8.56038 145.814 8.70501 146.103 8.99426C146.377 9.26829 146.514 9.65396 146.514 10.1513V12.5566H145.936V11.9705C145.586 12.4171 145.114 12.6404 144.52 12.6404ZM144.634 12.1684C145 12.1684 145.309 12.0695 145.563 11.8716C145.817 11.6737 145.943 11.4199 145.943 11.1104V10.745C145.558 10.6334 145.175 10.5775 144.794 10.5775C144.434 10.5775 144.152 10.6511 143.949 10.7983C143.746 10.9404 143.645 11.1357 143.645 11.3844C143.645 11.6229 143.739 11.8132 143.926 11.9553C144.119 12.0974 144.355 12.1684 144.634 12.1684ZM148.707 12.5566V9.13889H147.299V8.62128H150.709V9.13889H149.301V12.5566H148.707ZM152.171 13.7974C151.887 13.7974 151.608 13.7314 151.334 13.5995L151.531 13.1351C151.719 13.2316 151.925 13.2798 152.148 13.2798C152.326 13.2798 152.475 13.224 152.597 13.1123C152.719 13.0057 152.838 12.8154 152.955 12.5414L151.166 8.62128H151.813L153.244 11.902L154.508 8.62128H155.132L153.48 12.686C153.313 13.0869 153.127 13.3711 152.924 13.5386C152.721 13.7111 152.47 13.7974 152.171 13.7974ZM158.341 12.5566V8.62128H161.751V12.5566H161.165V9.13889H158.927V12.5566H158.341ZM163.115 12.5566V8.62128H163.701V12.5566H163.115ZM163.077 7.76113V7.11412H163.747V7.76113H163.077ZM166.835 12.648C166.266 12.648 165.787 12.4475 165.396 12.0466C165.01 11.6407 164.818 11.156 164.818 10.5928C164.818 10.0295 165.01 9.54739 165.396 9.1465C165.787 8.74053 166.266 8.53755 166.835 8.53755C167.444 8.53755 167.969 8.77098 168.41 9.23784L168.037 9.63366C167.672 9.24799 167.269 9.05516 166.827 9.05516C166.431 9.05516 166.096 9.20486 165.822 9.50426C165.553 9.79859 165.419 10.1614 165.419 10.5928C165.419 11.019 165.556 11.3819 165.83 11.6813C166.109 11.9756 166.454 12.1228 166.865 12.1228C167.286 12.1228 167.682 11.9249 168.053 11.529L168.441 11.8868C167.984 12.3943 167.449 12.648 166.835 12.648ZM169.219 12.6175C169.067 12.6175 168.91 12.5972 168.747 12.5566L168.816 12.0543C168.933 12.0898 169.027 12.1075 169.098 12.1075C169.209 12.1075 169.301 12.0949 169.372 12.0695C169.443 12.039 169.519 11.9654 169.6 11.8487C169.686 11.7269 169.752 11.5569 169.798 11.3387C169.844 11.1205 169.882 10.811 169.912 10.4101C169.948 10.0092 169.965 9.52202 169.965 8.94859V8.62128H172.751V12.5566H172.165V9.13889H170.521V9.23023C170.521 9.82904 170.498 10.339 170.453 10.7602C170.407 11.1814 170.349 11.5113 170.277 11.7498C170.212 11.9883 170.118 12.1735 169.996 12.3054C169.874 12.4374 169.755 12.5211 169.638 12.5566C169.526 12.5972 169.387 12.6175 169.219 12.6175ZM173.713 12.5566L174.916 11.0343C174.606 10.9632 174.352 10.8237 174.154 10.6156C173.962 10.4075 173.865 10.1513 173.865 9.8468C173.865 9.48142 173.997 9.1871 174.261 8.96381C174.525 8.73546 174.888 8.62128 175.35 8.62128H177.199V12.5566H176.613V11.1256H175.525C175.479 11.1865 175.322 11.3946 175.053 11.7498C174.784 12.105 174.578 12.374 174.436 12.5566H173.713ZM175.395 10.6308H176.613V9.13889H175.38C175.091 9.13889 174.862 9.20486 174.695 9.3368C174.533 9.46366 174.451 9.64128 174.451 9.86963C174.451 10.1031 174.538 10.2883 174.71 10.4253C174.888 10.5623 175.116 10.6308 175.395 10.6308ZM180.79 12.5566V8.62128H182.693C183.084 8.62128 183.396 8.71008 183.63 8.8877C183.863 9.06531 183.98 9.30381 183.98 9.60322C183.98 10.0244 183.762 10.3263 183.325 10.509C183.904 10.6663 184.193 10.9911 184.193 11.4834C184.193 11.8132 184.064 12.0746 183.805 12.2674C183.546 12.4602 183.198 12.5566 182.762 12.5566H180.79ZM181.377 12.0543H182.686C182.965 12.0543 183.186 11.9959 183.348 11.8792C183.51 11.7625 183.592 11.6001 183.592 11.392C183.592 11.1992 183.505 11.0495 183.333 10.9429C183.165 10.8363 182.924 10.7831 182.61 10.7831H181.377V12.0543ZM181.377 10.3111H182.587C182.83 10.3111 183.023 10.2578 183.165 10.1513C183.313 10.0396 183.386 9.88232 183.386 9.67933C183.386 9.51187 183.318 9.3774 183.181 9.2759C183.044 9.17441 182.851 9.12366 182.602 9.12366H181.377V10.3111ZM185.251 12.5566V8.62128H185.837V11.7346L188.174 8.62128H188.744V12.5566H188.158V9.44337L185.814 12.5566H185.251ZM190.053 12.5566V8.62128H190.639V10.8896L192.793 8.62128H193.516L191.872 10.3263L193.562 12.5566H192.869L191.468 10.7526L190.639 11.6052V12.5566H190.053ZM197.637 12.0466C197.241 12.4475 196.751 12.648 196.168 12.648C195.584 12.648 195.097 12.4475 194.706 12.0466C194.321 11.6457 194.128 11.1611 194.128 10.5928C194.128 10.0295 194.323 9.54739 194.714 9.1465C195.11 8.74053 195.6 8.53755 196.183 8.53755C196.767 8.53755 197.254 8.73799 197.645 9.13889C198.035 9.53978 198.231 10.0244 198.231 10.5928C198.231 11.156 198.033 11.6407 197.637 12.0466ZM196.183 12.1228C196.604 12.1228 196.949 11.9756 197.218 11.6813C197.492 11.3869 197.629 11.0241 197.629 10.5928C197.629 10.1665 197.487 9.80366 197.203 9.50426C196.924 9.20486 196.579 9.05516 196.168 9.05516C195.747 9.05516 195.402 9.20486 195.133 9.50426C194.864 9.79859 194.729 10.1614 194.729 10.5928C194.729 11.019 194.869 11.3819 195.148 11.6813C195.427 11.9756 195.772 12.1228 196.183 12.1228ZM199.292 13.7745V8.62128H199.879V9.41292C200.274 8.82934 200.777 8.53755 201.386 8.53755C201.888 8.53755 202.327 8.72531 202.703 9.10083C203.078 9.47128 203.266 9.96859 203.266 10.5928C203.266 11.2068 203.078 11.7016 202.703 12.0771C202.327 12.4526 201.888 12.6404 201.386 12.6404C200.767 12.6404 200.264 12.3613 199.879 11.8031V13.7745H199.292ZM201.279 12.1151C201.675 12.1151 202.005 11.9781 202.269 11.7041C202.533 11.425 202.665 11.052 202.665 10.5852C202.665 10.1335 202.53 9.76814 202.261 9.48904C201.992 9.20486 201.665 9.06277 201.279 9.06277C200.899 9.06277 200.566 9.2074 200.282 9.49665C199.998 9.7859 199.856 10.1513 199.856 10.5928C199.856 11.0343 199.998 11.3996 200.282 11.6889C200.566 11.9731 200.899 12.1151 201.279 12.1151ZM204.347 12.5566V8.62128H204.933V11.7346L207.27 8.62128H207.841V12.5566H207.255V9.44337L204.911 12.5566H204.347ZM210.923 12.648C210.355 12.648 209.875 12.4475 209.484 12.0466C209.099 11.6407 208.906 11.156 208.906 10.5928C208.906 10.0295 209.099 9.54739 209.484 9.1465C209.875 8.74053 210.355 8.53755 210.923 8.53755C211.532 8.53755 212.057 8.77098 212.499 9.23784L212.126 9.63366C211.76 9.24799 211.357 9.05516 210.915 9.05516C210.519 9.05516 210.185 9.20486 209.911 9.50426C209.642 9.79859 209.507 10.1614 209.507 10.5928C209.507 11.019 209.644 11.3819 209.918 11.6813C210.197 11.9756 210.542 12.1228 210.953 12.1228C211.375 12.1228 211.77 11.9249 212.141 11.529L212.529 11.8868C212.072 12.3943 211.537 12.648 210.923 12.648ZM214.449 12.5566V9.13889H213.041V8.62128H216.451V9.13889H215.043V12.5566H214.449ZM218.476 12.6404C218.075 12.6404 217.73 12.5313 217.441 12.3131C217.152 12.0949 217.007 11.7904 217.007 11.3996C217.007 10.9886 217.159 10.6714 217.464 10.4481C217.768 10.2249 218.177 10.1132 218.689 10.1132C219.095 10.1132 219.496 10.169 219.892 10.2807V10.1589C219.892 9.81381 219.79 9.54993 219.587 9.36725C219.384 9.18456 219.098 9.09322 218.727 9.09322C218.342 9.09322 217.943 9.1871 217.532 9.37486L217.357 8.89531C217.844 8.67202 218.321 8.56038 218.788 8.56038C219.346 8.56038 219.77 8.70501 220.059 8.99426C220.333 9.26829 220.47 9.65396 220.47 10.1513V12.5566H219.892V11.9705C219.542 12.4171 219.07 12.6404 218.476 12.6404ZM218.59 12.1684C218.956 12.1684 219.265 12.0695 219.519 11.8716C219.773 11.6737 219.9 11.4199 219.9 11.1104V10.745C219.514 10.6334 219.131 10.5775 218.75 10.5775C218.39 10.5775 218.108 10.6511 217.905 10.7983C217.702 10.9404 217.601 11.1357 217.601 11.3844C217.601 11.6229 217.695 11.8132 217.882 11.9553C218.075 12.0974 218.311 12.1684 218.59 12.1684ZM221.712 12.5566V8.62128H222.298V10.3187H224.566V8.62128H225.153V12.5566H224.566V10.8363H222.298V12.5566H221.712ZM226.462 12.5566V8.62128H227.048V10.3187H229.316V8.62128H229.903V12.5566H229.316V10.8363H227.048V12.5566H226.462ZM230.862 12.5566L232.065 11.0343C231.755 10.9632 231.501 10.8237 231.303 10.6156C231.11 10.4075 231.014 10.1513 231.014 9.8468C231.014 9.48142 231.146 9.1871 231.41 8.96381C231.674 8.73546 232.037 8.62128 232.498 8.62128H234.348V12.5566H233.762V11.1256H232.673C232.628 11.1865 232.47 11.3946 232.202 11.7498C231.933 12.105 231.727 12.374 231.585 12.5566H230.862ZM232.544 10.6308H233.762V9.13889H232.529C232.24 9.13889 232.011 9.20486 231.844 9.3368C231.681 9.46366 231.6 9.64128 231.6 9.86963C231.6 10.1031 231.686 10.2883 231.859 10.4253C232.037 10.5623 232.265 10.6308 232.544 10.6308ZM237.939 12.5566V8.62128H241.349V12.5566H240.763V9.13889H238.525V12.5566H237.939ZM242.66 13.7745V8.62128H243.246V9.41292C243.642 8.82934 244.144 8.53755 244.753 8.53755C245.255 8.53755 245.694 8.72531 246.07 9.10083C246.445 9.47128 246.633 9.96859 246.633 10.5928C246.633 11.2068 246.445 11.7016 246.07 12.0771C245.694 12.4526 245.255 12.6404 244.753 12.6404C244.134 12.6404 243.631 12.3613 243.246 11.8031V13.7745H242.66ZM244.646 12.1151C245.042 12.1151 245.372 11.9781 245.636 11.7041C245.9 11.425 246.032 11.052 246.032 10.5852C246.032 10.1335 245.897 9.76814 245.628 9.48904C245.359 9.20486 245.032 9.06277 244.646 9.06277C244.266 9.06277 243.933 9.2074 243.649 9.49665C243.365 9.7859 243.223 10.1513 243.223 10.5928C243.223 11.0343 243.365 11.3996 243.649 11.6889C243.933 11.9731 244.266 12.1151 244.646 12.1151ZM250.98 12.0466C250.584 12.4475 250.094 12.648 249.511 12.648C248.927 12.648 248.44 12.4475 248.049 12.0466C247.664 11.6457 247.471 11.1611 247.471 10.5928C247.471 10.0295 247.666 9.54739 248.057 9.1465C248.453 8.74053 248.942 8.53755 249.526 8.53755C250.11 8.53755 250.597 8.73799 250.988 9.13889C251.378 9.53978 251.574 10.0244 251.574 10.5928C251.574 11.156 251.376 11.6407 250.98 12.0466ZM249.526 12.1228C249.947 12.1228 250.292 11.9756 250.561 11.6813C250.835 11.3869 250.972 11.0241 250.972 10.5928C250.972 10.1665 250.83 9.80366 250.546 9.50426C250.267 9.20486 249.922 9.05516 249.511 9.05516C249.09 9.05516 248.745 9.20486 248.476 9.50426C248.207 9.79859 248.072 10.1614 248.072 10.5928C248.072 11.019 248.212 11.3819 248.491 11.6813C248.77 11.9756 249.115 12.1228 249.526 12.1228ZM252.057 13.5386V12.039H252.483C252.833 11.3996 253.008 10.4887 253.008 9.30635V8.62128H255.81V12.039H256.403L256.312 13.5386H255.825V12.5566H252.643L252.536 13.5386H252.057ZM253.107 12.039H255.223V9.13889H253.572V9.68695C253.572 10.6765 253.417 11.4605 253.107 12.039ZM257.816 13.7974C257.532 13.7974 257.253 13.7314 256.979 13.5995L257.177 13.1351C257.364 13.2316 257.57 13.2798 257.793 13.2798C257.971 13.2798 258.12 13.224 258.242 13.1123C258.364 13.0057 258.483 12.8154 258.6 12.5414L256.811 8.62128H257.458L258.889 11.902L260.153 8.62128H260.777L259.125 12.686C258.958 13.0869 258.773 13.3711 258.57 13.5386C258.367 13.7111 258.115 13.7974 257.816 13.7974ZM261.704 12.5566V8.62128H262.29V10.8896L264.445 8.62128H265.168L263.523 10.3263L265.213 12.5566H264.521L263.12 10.7526L262.29 11.6052V12.5566H261.704ZM266.975 12.5566V9.13889H265.566V8.62128H268.977V9.13889H267.568V12.5566H266.975ZM270.438 13.7974C270.154 13.7974 269.875 13.7314 269.601 13.5995L269.799 13.1351C269.986 13.2316 270.192 13.2798 270.415 13.2798C270.593 13.2798 270.743 13.224 270.864 13.1123C270.986 13.0057 271.105 12.8154 271.222 12.5414L269.433 8.62128H270.08L271.511 11.902L272.775 8.62128H273.399L271.747 12.686C271.58 13.0869 271.395 13.3711 271.192 13.5386C270.989 13.7111 270.737 13.7974 270.438 13.7974ZM274.258 12.5566V11.7574H274.958V12.5566H274.258ZM-0.000234834 19.5566V14.2283H0.601107V19.5566H-0.000234834ZM2.06271 19.5566V15.6213H2.64883V17.3187H4.91718V15.6213H5.5033V19.5566H4.91718V17.8363H2.64883V19.5566H2.06271ZM6.23423 20.5386V19.039H6.66049C7.01064 18.3996 7.18572 17.4887 7.18572 16.3064V15.6213H9.9869V19.039H10.5806L10.4893 20.5386H10.0021V19.5566H6.82034L6.71378 20.5386H6.23423ZM7.28467 19.039H9.40078V16.1389H7.749V16.6869C7.749 17.6765 7.59422 18.4605 7.28467 19.039ZM11.3843 19.5566V15.6213H11.9705V18.7346L14.3073 15.6213H14.8782V19.5566H14.2921V16.4434L11.9476 19.5566H11.3843ZM16.1864 19.5566V15.6213H18.0894C18.4801 15.6213 18.7922 15.7101 19.0256 15.8877C19.2591 16.0653 19.3758 16.3038 19.3758 16.6032C19.3758 17.0244 19.1576 17.3263 18.7212 17.509C19.2997 17.6663 19.5889 17.9911 19.5889 18.4834C19.5889 18.8132 19.4595 19.0746 19.2007 19.2674C18.9419 19.4602 18.5943 19.5566 18.1579 19.5566H16.1864ZM16.7725 19.0543H18.0818C18.3609 19.0543 18.5816 18.9959 18.744 18.8792C18.9064 18.7625 18.9876 18.6001 18.9876 18.392C18.9876 18.1992 18.9013 18.0495 18.7288 17.9429C18.5613 17.8363 18.3203 17.7831 18.0056 17.7831H16.7725V19.0543ZM16.7725 17.3111H17.9828C18.2264 17.3111 18.4192 17.2578 18.5613 17.1513C18.7085 17.0396 18.7821 16.8823 18.7821 16.6793C18.7821 16.5119 18.7136 16.3774 18.5765 16.2759C18.4395 16.1744 18.2467 16.1237 17.998 16.1237H16.7725V17.3111ZM20.6998 19.5566V15.6213H21.2859V19.5566H20.6998ZM20.6617 14.7611V14.1141H21.3316V14.7611H20.6617ZM22.0676 20.5386V19.039H22.4939C22.844 18.3996 23.0191 17.4887 23.0191 16.3064V15.6213H25.8203V19.039H26.414L26.3227 20.5386H25.8355V19.5566H22.6537L22.5472 20.5386H22.0676ZM23.1181 19.039H25.2342V16.1389H23.5824V16.6869C23.5824 17.6765 23.4276 18.4605 23.1181 19.039ZM27.8267 20.7974C27.5425 20.7974 27.2634 20.7314 26.9894 20.5995L27.1873 20.1351C27.375 20.2316 27.5806 20.2798 27.8038 20.2798C27.9815 20.2798 28.1312 20.224 28.2529 20.1123C28.3747 20.0057 28.494 19.8154 28.6107 19.5414L26.8219 15.6213H27.4689L28.9 18.902L30.1635 15.6213H30.7877L29.1359 19.686C28.9685 20.0869 28.7832 20.3711 28.5803 20.5386C28.3773 20.7111 28.1261 20.7974 27.8267 20.7974ZM32.8872 19.6404C32.4863 19.6404 32.1413 19.5313 31.852 19.3131C31.5628 19.0949 31.4181 18.7904 31.4181 18.3996C31.4181 17.9886 31.5704 17.6714 31.8749 17.4481C32.1793 17.2249 32.5878 17.1132 33.1004 17.1132C33.5063 17.1132 33.9072 17.169 34.3031 17.2807V17.1589C34.3031 16.8138 34.2016 16.5499 33.9986 16.3672C33.7956 16.1846 33.5089 16.0932 33.1384 16.0932C32.7528 16.0932 32.3544 16.1871 31.9434 16.3749L31.7683 15.8953C32.2555 15.672 32.7325 15.5604 33.1993 15.5604C33.7575 15.5604 34.1813 15.705 34.4705 15.9943C34.7446 16.2683 34.8816 16.654 34.8816 17.1513V19.5566H34.3031V18.9705C33.9529 19.4171 33.481 19.6404 32.8872 19.6404ZM33.0014 19.1684C33.3668 19.1684 33.6763 19.0695 33.9301 18.8716C34.1838 18.6737 34.3107 18.4199 34.3107 18.1104V17.745C33.925 17.6334 33.5419 17.5775 33.1613 17.5775C32.801 17.5775 32.5193 17.6511 32.3163 17.7983C32.1134 17.9404 32.0119 18.1357 32.0119 18.3844C32.0119 18.6229 32.1058 18.8132 32.2935 18.9553C32.4863 19.0974 32.7223 19.1684 33.0014 19.1684ZM35.9328 19.6175C35.7805 19.6175 35.6232 19.5972 35.4608 19.5566L35.5294 19.0543C35.6461 19.0898 35.7399 19.1075 35.811 19.1075C35.9226 19.1075 36.014 19.0949 36.085 19.0695C36.1561 19.039 36.2322 18.9654 36.3134 18.8487C36.3996 18.7269 36.4656 18.5569 36.5113 18.3387C36.557 18.1205 36.595 17.811 36.6255 17.4101C36.661 17.0092 36.6788 16.522 36.6788 15.9486V15.6213H39.4647V19.5566H38.8786V16.1389H37.2344V16.2302C37.2344 16.829 37.2116 17.339 37.1659 17.7602C37.1202 18.1814 37.0619 18.5113 36.9908 18.7498C36.9249 18.9883 36.831 19.1735 36.7092 19.3054C36.5874 19.4374 36.4682 19.5211 36.3514 19.5566C36.2398 19.5972 36.1002 19.6175 35.9328 19.6175ZM40.7765 19.5566V15.6213H41.3626V17.098H42.413C42.8697 17.098 43.2427 17.1969 43.532 17.3949C43.8212 17.5877 43.9659 17.882 43.9659 18.2778C43.9659 18.6686 43.8314 18.9807 43.5624 19.2141C43.2935 19.4425 42.9332 19.5566 42.4815 19.5566H40.7765ZM41.3626 19.039H42.4282C42.7277 19.039 42.9585 18.9756 43.1209 18.8487C43.2884 18.7219 43.3721 18.5366 43.3721 18.2931C43.3721 18.0698 43.2859 17.8998 43.1133 17.7831C42.9459 17.6613 42.7099 17.6004 42.4054 17.6004H41.3626V19.039ZM44.8723 19.5566V15.6213H45.4584V17.3187H47.7268V15.6213H48.3129V19.5566H47.7268V17.8363H45.4584V19.5566H44.8723ZM49.6223 19.5566V15.6213H50.2085V18.7346L52.5453 15.6213H53.1162V19.5566H52.5301V16.4434L50.1856 19.5566H49.6223ZM54.4244 19.5566V15.6213H55.0105V18.7346L57.3474 15.6213H57.9183V19.5566H57.3322V16.4434L54.9877 19.5566H54.4244ZM56.8602 14.7992C56.6674 14.9717 56.4314 15.058 56.1523 15.058C55.8732 15.058 55.6347 14.9717 55.4368 14.7992C55.2439 14.6267 55.1247 14.4034 55.079 14.1293L55.4825 14.0456C55.5839 14.4008 55.8072 14.5784 56.1523 14.5784C56.4974 14.5784 56.7207 14.4008 56.8222 14.0456L57.2256 14.1293C57.1799 14.4034 57.0581 14.6267 56.8602 14.7992ZM61.5085 20.7745V15.6213H62.0947V16.4129C62.4905 15.8293 62.9929 15.5375 63.6018 15.5375C64.1042 15.5375 64.5432 15.7253 64.9187 16.1008C65.2942 16.4713 65.482 16.9686 65.482 17.5928C65.482 18.2068 65.2942 18.7016 64.9187 19.0771C64.5432 19.4526 64.1042 19.6404 63.6018 19.6404C62.9827 19.6404 62.4803 19.3613 62.0947 18.8031V20.7745H61.5085ZM63.4952 19.1151C63.8911 19.1151 64.2209 18.9781 64.4848 18.7041C64.7487 18.425 64.8806 18.052 64.8806 17.5852C64.8806 17.1335 64.7461 16.7681 64.4772 16.489C64.2082 16.2049 63.8809 16.0628 63.4952 16.0628C63.1147 16.0628 62.7823 16.2074 62.4981 16.4966C62.2139 16.7859 62.0718 17.1513 62.0718 17.5928C62.0718 18.0343 62.2139 18.3996 62.4981 18.6889C62.7823 18.9731 63.1147 19.1151 63.4952 19.1151ZM68.2836 19.648C67.7305 19.648 67.2636 19.4577 66.883 19.0771C66.5075 18.6914 66.3198 18.1966 66.3198 17.5928C66.3198 17.0193 66.4999 16.5347 66.8602 16.1389C67.2205 15.738 67.6696 15.5375 68.2075 15.5375C68.7708 15.5375 69.2174 15.7355 69.5472 16.1313C69.8771 16.5271 70.042 17.0244 70.042 17.6232C70.042 17.6993 70.0394 17.7678 70.0344 17.8287H66.9135C66.9541 18.2296 67.1038 18.5493 67.3626 18.7878C67.6265 19.0213 67.9386 19.138 68.2988 19.138C68.7708 19.138 69.1844 18.9528 69.5396 18.5823L69.905 18.9096C69.4635 19.4019 68.923 19.648 68.2836 19.648ZM66.9135 17.3568H69.4482C69.4127 16.9762 69.2859 16.6616 69.0677 16.4129C68.8545 16.1592 68.5627 16.0323 68.1923 16.0323C67.8574 16.0323 67.5706 16.1566 67.3321 16.4053C67.0936 16.654 66.9541 16.9711 66.9135 17.3568ZM72.3164 19.648C71.7125 19.648 71.1695 19.4526 70.6874 19.0619L70.9843 18.628C71.3852 18.968 71.8242 19.138 72.3012 19.138C72.5701 19.138 72.7985 19.0771 72.9862 18.9553C73.1791 18.8284 73.2755 18.6559 73.2755 18.4377C73.2755 18.2347 73.1892 18.0774 73.0167 17.9657C72.8442 17.849 72.6006 17.7907 72.2859 17.7907H71.7607V17.3111H72.2936C72.5524 17.3111 72.763 17.2502 72.9253 17.1284C73.0877 17.0016 73.1689 16.8366 73.1689 16.6337C73.1689 16.4561 73.0877 16.314 72.9253 16.2074C72.768 16.1008 72.5651 16.0475 72.3164 16.0475C71.8495 16.0475 71.4512 16.1795 71.1213 16.4434L70.8321 16.0323C71.2583 15.7025 71.7658 15.5375 72.3545 15.5375C72.7909 15.5375 73.1359 15.6365 73.3897 15.8344C73.6485 16.0272 73.7779 16.2784 73.7779 16.588C73.7779 17.0193 73.5673 17.3213 73.1461 17.4938C73.6333 17.6663 73.8768 17.9886 73.8768 18.4605C73.8768 18.7904 73.7347 19.072 73.4506 19.3054C73.1664 19.5338 72.7883 19.648 72.3164 19.648ZM75.5722 20.7974C75.288 20.7974 75.0089 20.7314 74.7348 20.5995L74.9328 20.1351C75.1205 20.2316 75.326 20.2798 75.5493 20.2798C75.7269 20.2798 75.8766 20.224 75.9984 20.1123C76.1202 20.0057 76.2395 19.8154 76.3562 19.5414L74.5674 15.6213H75.2144L76.6454 18.902L77.909 15.6213H78.5332L76.8814 19.686C76.7139 20.0869 76.5287 20.3711 76.3257 20.5386C76.1228 20.7111 75.8716 20.7974 75.5722 20.7974ZM79.2702 19.6175C79.1179 19.6175 78.9606 19.5972 78.7982 19.5566L78.8668 19.0543C78.9835 19.0898 79.0773 19.1075 79.1484 19.1075C79.26 19.1075 79.3514 19.0949 79.4224 19.0695C79.4935 19.039 79.5696 18.9654 79.6508 18.8487C79.737 18.7269 79.803 18.5569 79.8487 18.3387C79.8944 18.1205 79.9324 17.811 79.9629 17.4101C79.9984 17.0092 80.0162 16.522 80.0162 15.9486V15.6213H82.8021V19.5566H82.216V16.1389H80.5718V16.2302C80.5718 16.829 80.549 17.339 80.5033 17.7602C80.4576 18.1814 80.3993 18.5113 80.3282 18.7498C80.2623 18.9883 80.1684 19.1735 80.0466 19.3054C79.9248 19.4374 79.8056 19.5211 79.6888 19.5566C79.5772 19.5972 79.4376 19.6175 79.2702 19.6175ZM84.1139 19.5566V15.6213H84.7V17.098H85.7504C86.2071 17.098 86.5801 17.1969 86.8694 17.3949C87.1586 17.5877 87.3033 17.882 87.3033 18.2778C87.3033 18.6686 87.1688 18.9807 86.8998 19.2141C86.6309 19.4425 86.2706 19.5566 85.8189 19.5566H84.1139ZM84.7 19.039H85.7656C86.0651 19.039 86.2959 18.9756 86.4583 18.8487C86.6258 18.7219 86.7095 18.5366 86.7095 18.2931C86.7095 18.0698 86.6233 17.8998 86.4507 17.7831C86.2833 17.6613 86.0473 17.6004 85.7428 17.6004H84.7V19.039ZM89.1612 19.5566V16.1389H87.753V15.6213H91.1631V16.1389H89.7549V19.5566H89.1612ZM93.1879 19.6404C92.787 19.6404 92.442 19.5313 92.1527 19.3131C91.8634 19.0949 91.7188 18.7904 91.7188 18.3996C91.7188 17.9886 91.8711 17.6714 92.1755 17.4481C92.48 17.2249 92.8885 17.1132 93.4011 17.1132C93.807 17.1132 94.2079 17.169 94.6037 17.2807V17.1589C94.6037 16.8138 94.5022 16.5499 94.2993 16.3672C94.0963 16.1846 93.8096 16.0932 93.4391 16.0932C93.0534 16.0932 92.6551 16.1871 92.244 16.3749L92.069 15.8953C92.5561 15.672 93.0331 15.5604 93.5 15.5604C94.0582 15.5604 94.4819 15.705 94.7712 15.9943C95.0452 16.2683 95.1822 16.654 95.1822 17.1513V19.5566H94.6037V18.9705C94.2536 19.4171 93.7817 19.6404 93.1879 19.6404ZM93.3021 19.1684C93.6675 19.1684 93.977 19.0695 94.2308 18.8716C94.4845 18.6737 94.6114 18.4199 94.6114 18.1104V17.745C94.2257 17.6334 93.8425 17.5775 93.462 17.5775C93.1017 17.5775 92.82 17.6511 92.617 17.7983C92.414 17.9404 92.3126 18.1357 92.3126 18.3844C92.3126 18.6229 92.4064 18.8132 92.5942 18.9553C92.787 19.0974 93.023 19.1684 93.3021 19.1684ZM97.3752 19.5566V16.1389H95.967V15.6213H99.3772V16.1389H97.969V19.5566H97.3752ZM102.512 19.5566V15.6213H103.067L104.537 17.6917L106.006 15.6213H106.569V19.5566H105.975V16.5575L104.521 18.5519L103.083 16.5575V19.5566H102.512ZM111.144 19.0466C110.749 19.4475 110.259 19.648 109.675 19.648C109.092 19.648 108.604 19.4475 108.214 19.0466C107.828 18.6457 107.635 18.1611 107.635 17.5928C107.635 17.0295 107.831 16.5474 108.221 16.1465C108.617 15.7405 109.107 15.5375 109.69 15.5375C110.274 15.5375 110.761 15.738 111.152 16.1389C111.543 16.5398 111.738 17.0244 111.738 17.5928C111.738 18.156 111.54 18.6407 111.144 19.0466ZM109.69 19.1228C110.112 19.1228 110.457 18.9756 110.726 18.6813C111 18.3869 111.137 18.0241 111.137 17.5928C111.137 17.1665 110.995 16.8037 110.71 16.5043C110.431 16.2049 110.086 16.0552 109.675 16.0552C109.254 16.0552 108.909 16.2049 108.64 16.5043C108.371 16.7986 108.237 17.1614 108.237 17.5928C108.237 18.019 108.376 18.3819 108.655 18.6813C108.934 18.9756 109.279 19.1228 109.69 19.1228ZM112.297 19.5566L113.911 17.3035L112.381 15.6213H113.089L115.091 17.9049V15.6213H115.677V17.9049L117.679 15.6213H118.387L116.857 17.3035L118.471 19.5566H117.786L116.476 17.7222L115.677 18.5975V19.5566H115.091V18.5975L114.292 17.7222L112.982 19.5566H112.297ZM120.995 19.648C120.442 19.648 119.975 19.4577 119.594 19.0771C119.219 18.6914 119.031 18.1966 119.031 17.5928C119.031 17.0193 119.211 16.5347 119.571 16.1389C119.932 15.738 120.381 15.5375 120.919 15.5375C121.482 15.5375 121.928 15.7355 122.258 16.1313C122.588 16.5271 122.753 17.0244 122.753 17.6232C122.753 17.6993 122.75 17.7678 122.745 17.8287H119.625C119.665 18.2296 119.815 18.5493 120.074 18.7878C120.338 19.0213 120.65 19.138 121.01 19.138C121.482 19.138 121.895 18.9528 122.251 18.5823L122.616 18.9096C122.175 19.4019 121.634 19.648 120.995 19.648ZM119.625 17.3568H122.159C122.124 16.9762 121.997 16.6616 121.779 16.4129C121.566 16.1592 121.274 16.0323 120.903 16.0323C120.568 16.0323 120.282 16.1566 120.043 16.4053C119.805 16.654 119.665 16.9711 119.625 17.3568ZM126.061 19.5566V15.6213H127.964C128.355 15.6213 128.667 15.7101 128.9 15.8877C129.134 16.0653 129.251 16.3038 129.251 16.6032C129.251 17.0244 129.032 17.3263 128.596 17.509C129.174 17.6663 129.464 17.9911 129.464 18.4834C129.464 18.8132 129.334 19.0746 129.076 19.2674C128.817 19.4602 128.469 19.5566 128.033 19.5566H126.061ZM126.647 19.0543H127.957C128.236 19.0543 128.456 18.9959 128.619 18.8792C128.781 18.7625 128.862 18.6001 128.862 18.392C128.862 18.1992 128.776 18.0495 128.604 17.9429C128.436 17.8363 128.195 17.7831 127.88 17.7831H126.647V19.0543ZM126.647 17.3111H127.858C128.101 17.3111 128.294 17.2578 128.436 17.1513C128.583 17.0396 128.657 16.8823 128.657 16.6793C128.657 16.5119 128.588 16.3774 128.451 16.2759C128.314 16.1744 128.121 16.1237 127.873 16.1237H126.647V17.3111ZM130.575 19.5566V15.6213H131.161V19.5566H130.575ZM130.537 14.7611V14.1141H131.206V14.7611H130.537ZM131.942 20.5386V19.039H132.369C132.719 18.3996 132.894 17.4887 132.894 16.3064V15.6213H135.695V19.039H136.289L136.197 20.5386H135.71V19.5566H132.529L132.422 20.5386H131.942ZM132.993 19.039H135.109V16.1389H133.457V16.6869C133.457 17.6765 133.302 18.4605 132.993 19.039ZM137.093 20.7745V15.6213H137.679V16.4129C138.074 15.8293 138.577 15.5375 139.186 15.5375C139.688 15.5375 140.127 15.7253 140.503 16.1008C140.878 16.4713 141.066 16.9686 141.066 17.5928C141.066 18.2068 140.878 18.7016 140.503 19.0771C140.127 19.4526 139.688 19.6404 139.186 19.6404C138.567 19.6404 138.064 19.3613 137.679 18.8031V20.7745H137.093ZM139.079 19.1151C139.475 19.1151 139.805 18.9781 140.069 18.7041C140.333 18.425 140.465 18.052 140.465 17.5852C140.465 17.1335 140.33 16.7681 140.061 16.489C139.792 16.2049 139.465 16.0628 139.079 16.0628C138.699 16.0628 138.366 16.2074 138.082 16.4966C137.798 16.7859 137.656 17.1513 137.656 17.5928C137.656 18.0343 137.798 18.3996 138.082 18.6889C138.366 18.9731 138.699 19.1151 139.079 19.1151ZM142.201 19.5566V15.6213H142.787V19.5566H142.201ZM142.163 14.7611V14.1141H142.832V14.7611H142.163ZM145.395 19.648C144.791 19.648 144.248 19.4526 143.766 19.0619L144.063 18.628C144.464 18.968 144.903 19.138 145.38 19.138C145.649 19.138 145.877 19.0771 146.065 18.9553C146.258 18.8284 146.354 18.6559 146.354 18.4377C146.354 18.2347 146.268 18.0774 146.096 17.9657C145.923 17.849 145.679 17.7907 145.365 17.7907H144.84V17.3111H145.372C145.631 17.3111 145.842 17.2502 146.004 17.1284C146.167 17.0016 146.248 16.8366 146.248 16.6337C146.248 16.4561 146.167 16.314 146.004 16.2074C145.847 16.1008 145.644 16.0475 145.395 16.0475C144.928 16.0475 144.53 16.1795 144.2 16.4434L143.911 16.0323C144.337 15.7025 144.845 15.5375 145.433 15.5375C145.87 15.5375 146.215 15.6365 146.469 15.8344C146.727 16.0272 146.857 16.2784 146.857 16.588C146.857 17.0193 146.646 17.3213 146.225 17.4938C146.712 17.6663 146.956 17.9886 146.956 18.4605C146.956 18.7904 146.814 19.072 146.529 19.3054C146.245 19.5338 145.867 19.648 145.395 19.648ZM148.042 19.5566V15.6213H148.628V17.3187H150.897V15.6213H151.483V19.5566H150.897V17.8363H148.628V19.5566H148.042ZM152.442 19.5566L153.645 18.0343C153.335 17.9632 153.081 17.8237 152.883 17.6156C152.691 17.4075 152.594 17.1513 152.594 16.8468C152.594 16.4814 152.726 16.1871 152.99 15.9638C153.254 15.7355 153.617 15.6213 154.079 15.6213H155.928V19.5566H155.342V18.1256H154.254C154.208 18.1865 154.051 18.3946 153.782 18.7498C153.513 19.105 153.307 19.374 153.165 19.5566H152.442ZM154.124 17.6308H155.342V16.1389H154.109C153.82 16.1389 153.591 16.2049 153.424 16.3368C153.262 16.4637 153.18 16.6413 153.18 16.8696C153.18 17.1031 153.267 17.2883 153.439 17.4253C153.617 17.5623 153.845 17.6308 154.124 17.6308ZM158.189 19.5566V16.1389H156.781V15.6213H160.191V16.1389H158.783V19.5566H158.189ZM161.043 19.5566V15.6213H161.629V18.7346L163.966 15.6213H164.537V19.5566H163.951V16.4434L161.607 19.5566H161.043ZM167.619 19.648C167.051 19.648 166.571 19.4475 166.18 19.0466C165.795 18.6407 165.602 18.156 165.602 17.5928C165.602 17.0295 165.795 16.5474 166.18 16.1465C166.571 15.7405 167.051 15.5375 167.619 15.5375C168.228 15.5375 168.753 15.771 169.195 16.2378L168.822 16.6337C168.456 16.248 168.053 16.0552 167.611 16.0552C167.216 16.0552 166.881 16.2049 166.607 16.5043C166.338 16.7986 166.203 17.1614 166.203 17.5928C166.203 18.019 166.34 18.3819 166.614 18.6813C166.893 18.9756 167.238 19.1228 167.649 19.1228C168.071 19.1228 168.466 18.9249 168.837 18.529L169.225 18.8868C168.768 19.3943 168.233 19.648 167.619 19.648ZM169.844 19.5566L171.046 18.0343C170.737 17.9632 170.483 17.8237 170.285 17.6156C170.092 17.4075 169.996 17.1513 169.996 16.8468C169.996 16.4814 170.128 16.1871 170.392 15.9638C170.656 15.7355 171.019 15.6213 171.48 15.6213H173.33V19.5566H172.744V18.1256H171.655C171.61 18.1865 171.452 18.3946 171.184 18.7498C170.915 19.105 170.709 19.374 170.567 19.5566H169.844ZM171.526 17.6308H172.744V16.1389H171.511C171.222 16.1389 170.993 16.2049 170.826 16.3368C170.663 16.4637 170.582 16.6413 170.582 16.8696C170.582 17.1031 170.668 17.2883 170.841 17.4253C171.019 17.5623 171.247 17.6308 171.526 17.6308ZM174.571 19.5566V18.7574H175.271V19.5566H174.571ZM178.886 19.5566V14.2283H182.707V14.7764H179.487V16.4129H181.063C181.662 16.4129 182.149 16.5449 182.525 16.8087C182.9 17.0675 183.088 17.4532 183.088 17.9657C183.088 18.4783 182.91 18.8716 182.555 19.1456C182.205 19.4196 181.728 19.5566 181.124 19.5566H178.886ZM179.487 19.0086H181.078C182.017 19.0086 182.487 18.6508 182.487 17.9353C182.487 17.6055 182.36 17.3593 182.106 17.1969C181.852 17.0295 181.499 16.9458 181.048 16.9458H179.487V19.0086ZM185.897 19.648C185.344 19.648 184.877 19.4577 184.496 19.0771C184.121 18.6914 183.933 18.1966 183.933 17.5928C183.933 17.0193 184.113 16.5347 184.473 16.1389C184.834 15.738 185.283 15.5375 185.821 15.5375C186.384 15.5375 186.83 15.7355 187.16 16.1313C187.49 16.5271 187.655 17.0244 187.655 17.6232C187.655 17.6993 187.653 17.7678 187.647 17.8287H184.527C184.567 18.2296 184.717 18.5493 184.976 18.7878C185.24 19.0213 185.552 19.138 185.912 19.138C186.384 19.138 186.797 18.9528 187.153 18.5823L187.518 18.9096C187.077 19.4019 186.536 19.648 185.897 19.648ZM184.527 17.3568H187.061C187.026 16.9762 186.899 16.6616 186.681 16.4129C186.468 16.1592 186.176 16.0323 185.805 16.0323C185.47 16.0323 185.184 16.1566 184.945 16.4053C184.707 16.654 184.567 16.9711 184.527 17.3568ZM189.929 19.648C189.326 19.648 188.783 19.4526 188.301 19.0619L188.597 18.628C188.998 18.968 189.437 19.138 189.914 19.138C190.183 19.138 190.412 19.0771 190.599 18.9553C190.792 18.8284 190.889 18.6559 190.889 18.4377C190.889 18.2347 190.802 18.0774 190.63 17.9657C190.457 17.849 190.214 17.7907 189.899 17.7907H189.374V17.3111H189.907C190.165 17.3111 190.376 17.2502 190.538 17.1284C190.701 17.0016 190.782 16.8366 190.782 16.6337C190.782 16.4561 190.701 16.314 190.538 16.2074C190.381 16.1008 190.178 16.0475 189.929 16.0475C189.463 16.0475 189.064 16.1795 188.734 16.4434L188.445 16.0323C188.871 15.7025 189.379 15.5375 189.968 15.5375C190.404 15.5375 190.749 15.6365 191.003 15.8344C191.262 16.0272 191.391 16.2784 191.391 16.588C191.391 17.0193 191.18 17.3213 190.759 17.4938C191.246 17.6663 191.49 17.9886 191.49 18.4605C191.49 18.7904 191.348 19.072 191.064 19.3054C190.779 19.5338 190.401 19.648 189.929 19.648ZM194.858 19.5566V15.6213H195.414L196.883 17.6917L198.352 15.6213H198.916V19.5566H198.322V16.5575L196.868 18.5519L195.429 16.5575V19.5566H194.858ZM203.491 19.0466C203.095 19.4475 202.605 19.648 202.022 19.648C201.438 19.648 200.951 19.4475 200.56 19.0466C200.175 18.6457 199.982 18.1611 199.982 17.5928C199.982 17.0295 200.177 16.5474 200.568 16.1465C200.964 15.7405 201.453 15.5375 202.037 15.5375C202.621 15.5375 203.108 15.738 203.498 16.1389C203.889 16.5398 204.085 17.0244 204.085 17.5928C204.085 18.156 203.887 18.6407 203.491 19.0466ZM202.037 19.1228C202.458 19.1228 202.803 18.9756 203.072 18.6813C203.346 18.3869 203.483 18.0241 203.483 17.5928C203.483 17.1665 203.341 16.8037 203.057 16.5043C202.778 16.2049 202.433 16.0552 202.022 16.0552C201.601 16.0552 201.256 16.2049 200.987 16.5043C200.718 16.7986 200.583 17.1614 200.583 17.5928C200.583 18.019 200.723 18.3819 201.002 18.6813C201.281 18.9756 201.626 19.1228 202.037 19.1228ZM204.568 20.5386V19.039H204.994C205.344 18.3996 205.519 17.4887 205.519 16.3064V15.6213H208.321V19.039H208.914L208.823 20.5386H208.336V19.5566H205.154L205.047 20.5386H204.568ZM205.618 19.039H207.734V16.1389H206.083V16.6869C206.083 17.6765 205.928 18.4605 205.618 19.039ZM209.718 19.5566V15.6213H210.304V18.7346L212.641 15.6213H213.212V19.5566H212.626V16.4434L210.281 19.5566H209.718ZM216.887 20.7745V19.2369C216.573 19.5059 216.245 19.6404 215.905 19.6404C215.428 19.6404 215.043 19.4577 214.748 19.0923C214.454 18.7219 214.307 18.2169 214.307 17.5775C214.307 16.9483 214.454 16.451 214.748 16.0856C215.043 15.7202 215.428 15.5375 215.905 15.5375C216.245 15.5375 216.573 15.6796 216.887 15.9638V14.2283H217.481V15.9638C217.796 15.6796 218.123 15.5375 218.463 15.5375C218.945 15.5375 219.333 15.7228 219.628 16.0932C219.922 16.4586 220.069 16.9584 220.069 17.5928C220.069 18.222 219.919 18.7219 219.62 19.0923C219.326 19.4577 218.94 19.6404 218.463 19.6404C218.245 19.6404 218.065 19.6074 217.923 19.5414C217.786 19.4704 217.638 19.3689 217.481 19.2369V20.7745H216.887ZM216.027 19.1228C216.357 19.1228 216.644 18.9934 216.887 18.7346V16.451C216.644 16.1922 216.357 16.0628 216.027 16.0628C215.662 16.0628 215.385 16.1998 215.197 16.4738C215.01 16.7478 214.916 17.1259 214.916 17.608C214.916 18.6178 215.286 19.1228 216.027 19.1228ZM218.349 19.1228C219.09 19.1228 219.46 18.6128 219.46 17.5928C219.46 17.1158 219.366 16.7428 219.179 16.4738C218.991 16.1998 218.714 16.0628 218.349 16.0628C218.019 16.0628 217.73 16.1922 217.481 16.451V18.7346C217.73 18.9934 218.019 19.1228 218.349 19.1228ZM221.219 19.5566V15.6213H221.805V19.5566H221.219ZM221.181 14.7611V14.1141H221.851V14.7611H221.181ZM223.165 19.5566V15.6213H223.751V17.8896L225.905 15.6213H226.629L224.984 17.3263L226.674 19.5566H225.982L224.581 17.7526L223.751 18.6052V19.5566H223.165ZM228.656 19.6404C228.255 19.6404 227.91 19.5313 227.621 19.3131C227.332 19.0949 227.187 18.7904 227.187 18.3996C227.187 17.9886 227.339 17.6714 227.644 17.4481C227.948 17.2249 228.357 17.1132 228.869 17.1132C229.275 17.1132 229.676 17.169 230.072 17.2807V17.1589C230.072 16.8138 229.971 16.5499 229.768 16.3672C229.565 16.1846 229.278 16.0932 228.908 16.0932C228.522 16.0932 228.123 16.1871 227.712 16.3749L227.537 15.8953C228.025 15.672 228.502 15.5604 228.968 15.5604C229.527 15.5604 229.95 15.705 230.24 15.9943C230.514 16.2683 230.651 16.654 230.651 17.1513V19.5566H230.072V18.9705C229.722 19.4171 229.25 19.6404 228.656 19.6404ZM228.77 19.1684C229.136 19.1684 229.445 19.0695 229.699 18.8716C229.953 18.6737 230.08 18.4199 230.08 18.1104V17.745C229.694 17.6334 229.311 17.5775 228.93 17.5775C228.57 17.5775 228.288 17.6511 228.085 17.7983C227.882 17.9404 227.781 18.1357 227.781 18.3844C227.781 18.6229 227.875 18.8132 228.063 18.9553C228.255 19.0974 228.491 19.1684 228.77 19.1684ZM235.287 20.5386V19.5566H231.892V15.6213H232.478V19.039H234.686V15.6213H235.272V19.039H235.866L235.774 20.5386H235.287ZM236.725 19.5566V15.6213H237.311V19.5566H236.725ZM236.687 14.7611V14.1141H237.357V14.7611H236.687ZM238.009 15.0275V14.3044H238.694V15.0275H238.009ZM239.349 15.0275V14.3044H240.034V15.0275H239.349ZM238.725 19.5566V15.6213H239.311V19.5566H238.725ZM244.202 19.648C243.598 19.648 243.055 19.4526 242.573 19.0619L242.869 18.628C243.27 18.968 243.709 19.138 244.186 19.138C244.455 19.138 244.684 19.0771 244.871 18.9553C245.064 18.8284 245.161 18.6559 245.161 18.4377C245.161 18.2347 245.074 18.0774 244.902 17.9657C244.729 17.849 244.486 17.7907 244.171 17.7907H243.646V17.3111H244.179C244.438 17.3111 244.648 17.2502 244.811 17.1284C244.973 17.0016 245.054 16.8366 245.054 16.6337C245.054 16.4561 244.973 16.314 244.811 16.2074C244.653 16.1008 244.45 16.0475 244.202 16.0475C243.735 16.0475 243.336 16.1795 243.006 16.4434L242.717 16.0323C243.144 15.7025 243.651 15.5375 244.24 15.5375C244.676 15.5375 245.021 15.6365 245.275 15.8344C245.534 16.0272 245.663 16.2784 245.663 16.588C245.663 17.0193 245.452 17.3213 245.031 17.4938C245.518 17.6663 245.762 17.9886 245.762 18.4605C245.762 18.7904 245.62 19.072 245.336 19.3054C245.052 19.5338 244.674 19.648 244.202 19.648ZM250.114 19.0466C249.718 19.4475 249.228 19.648 248.645 19.648C248.061 19.648 247.574 19.4475 247.183 19.0466C246.798 18.6457 246.605 18.1611 246.605 17.5928C246.605 17.0295 246.8 16.5474 247.191 16.1465C247.587 15.7405 248.076 15.5375 248.66 15.5375C249.244 15.5375 249.731 15.738 250.122 16.1389C250.512 16.5398 250.708 17.0244 250.708 17.5928C250.708 18.156 250.51 18.6407 250.114 19.0466ZM248.66 19.1228C249.081 19.1228 249.426 18.9756 249.695 18.6813C249.969 18.3869 250.106 18.0241 250.106 17.5928C250.106 17.1665 249.964 16.8037 249.68 16.5043C249.401 16.2049 249.056 16.0552 248.645 16.0552C248.224 16.0552 247.879 16.2049 247.61 16.5043C247.341 16.7986 247.206 17.1614 247.206 17.5928C247.206 18.019 247.346 18.3819 247.625 18.6813C247.904 18.9756 248.249 19.1228 248.66 19.1228ZM253.619 19.648C253.015 19.648 252.531 19.4501 252.165 19.0543C251.805 18.6534 251.625 18.1129 251.625 17.4329C251.625 17.1843 251.63 16.9737 251.64 16.8011C251.65 16.6235 251.67 16.4281 251.701 16.215C251.731 16.0019 251.78 15.8192 251.845 15.6669C251.911 15.5147 251.995 15.365 252.097 15.2178C252.203 15.0707 252.34 14.9464 252.508 14.8449C252.675 14.7434 252.871 14.6673 253.094 14.6165L255.286 14.0989L255.4 14.5937L253.269 15.1189C252.873 15.2204 252.589 15.3828 252.416 15.6061C252.249 15.8243 252.15 16.1287 252.12 16.5195C252.454 15.9511 252.997 15.6669 253.748 15.6669C254.266 15.6669 254.71 15.8598 255.081 16.2455C255.451 16.6261 255.636 17.0853 255.636 17.6232C255.636 18.1814 255.443 18.6584 255.058 19.0543C254.672 19.4501 254.192 19.648 253.619 19.648ZM253.634 19.1228C254.035 19.1228 254.368 18.9807 254.631 18.6965C254.895 18.4072 255.027 18.0546 255.027 17.6384C255.027 17.2274 254.89 16.8772 254.616 16.588C254.347 16.2987 254.015 16.1541 253.619 16.1541C253.218 16.1541 252.886 16.2987 252.622 16.588C252.358 16.8722 252.226 17.2223 252.226 17.6384C252.226 18.0495 252.361 18.3996 252.63 18.6889C252.904 18.9781 253.238 19.1228 253.634 19.1228ZM256.698 20.7745V15.6213H257.284V16.4129C257.68 15.8293 258.182 15.5375 258.791 15.5375C259.293 15.5375 259.732 15.7253 260.108 16.1008C260.483 16.4713 260.671 16.9686 260.671 17.5928C260.671 18.2068 260.483 18.7016 260.108 19.0771C259.732 19.4526 259.293 19.6404 258.791 19.6404C258.172 19.6404 257.67 19.3613 257.284 18.8031V20.7745H256.698ZM258.684 19.1151C259.08 19.1151 259.41 18.9781 259.674 18.7041C259.938 18.425 260.07 18.052 260.07 17.5852C260.07 17.1335 259.935 16.7681 259.666 16.489C259.397 16.2049 259.07 16.0628 258.684 16.0628C258.304 16.0628 257.972 16.2074 257.687 16.4966C257.403 16.7859 257.261 17.1513 257.261 17.5928C257.261 18.0343 257.403 18.3996 257.687 18.6889C257.972 18.9731 258.304 19.1151 258.684 19.1151ZM262.925 19.6404C262.524 19.6404 262.179 19.5313 261.89 19.3131C261.6 19.0949 261.456 18.7904 261.456 18.3996C261.456 17.9886 261.608 17.6714 261.912 17.4481C262.217 17.2249 262.625 17.1132 263.138 17.1132C263.544 17.1132 263.945 17.169 264.341 17.2807V17.1589C264.341 16.8138 264.239 16.5499 264.036 16.3672C263.833 16.1846 263.546 16.0932 263.176 16.0932C262.79 16.0932 262.392 16.1871 261.981 16.3749L261.806 15.8953C262.293 15.672 262.77 15.5604 263.237 15.5604C263.795 15.5604 264.219 15.705 264.508 15.9943C264.782 16.2683 264.919 16.654 264.919 17.1513V19.5566H264.341V18.9705C263.99 19.4171 263.519 19.6404 262.925 19.6404ZM263.039 19.1684C263.404 19.1684 263.714 19.0695 263.968 18.8716C264.221 18.6737 264.348 18.4199 264.348 18.1104V17.745C263.963 17.6334 263.579 17.5775 263.199 17.5775C262.839 17.5775 262.557 17.6511 262.354 17.7983C262.151 17.9404 262.049 18.1357 262.049 18.3844C262.049 18.6229 262.143 18.8132 262.331 18.9553C262.524 19.0974 262.76 19.1684 263.039 19.1684ZM265.658 19.5566L267.272 17.3035L265.742 15.6213H266.45L268.452 17.9049V15.6213H269.038V17.9049L271.04 15.6213H271.748L270.218 17.3035L271.832 19.5566H271.146L269.837 17.7222L269.038 18.5975V19.5566H268.452V18.5975L267.653 17.7222L266.343 19.5566H265.658ZM274.356 19.648C273.802 19.648 273.336 19.4577 272.955 19.0771C272.579 18.6914 272.392 18.1966 272.392 17.5928C272.392 17.0193 272.572 16.5347 272.932 16.1389C273.292 15.738 273.742 15.5375 274.279 15.5375C274.843 15.5375 275.289 15.7355 275.619 16.1313C275.949 16.5271 276.114 17.0244 276.114 17.6232C276.114 17.6993 276.111 17.7678 276.106 17.8287H272.985C273.026 18.2296 273.176 18.5493 273.434 18.7878C273.698 19.0213 274.01 19.138 274.371 19.138C274.843 19.138 275.256 18.9528 275.612 18.5823L275.977 18.9096C275.535 19.4019 274.995 19.648 274.356 19.648ZM272.985 17.3568H275.52C275.485 16.9762 275.358 16.6616 275.14 16.4129C274.926 16.1592 274.635 16.0323 274.264 16.0323C273.929 16.0323 273.643 16.1566 273.404 16.4053C273.166 16.654 273.026 16.9711 272.985 17.3568ZM277.14 19.5566V15.6213H277.726V17.3187H279.994V15.6213H280.581V19.5566H279.994V17.8363H277.726V19.5566H277.14ZM281.89 19.5566V15.6213H282.476V17.3187H284.744V15.6213H285.331V19.5566H284.744V17.8363H282.476V19.5566H281.89ZM286.29 19.5566L287.493 18.0343C287.183 17.9632 286.929 17.8237 286.731 17.6156C286.538 17.4075 286.442 17.1513 286.442 16.8468C286.442 16.4814 286.574 16.1871 286.838 15.9638C287.102 15.7355 287.465 15.6213 287.926 15.6213H289.776V19.5566H289.19V18.1256H288.101C288.056 18.1865 287.898 18.3946 287.63 18.7498C287.361 19.105 287.155 19.374 287.013 19.5566H286.29ZM287.972 17.6308H289.19V16.1389H287.957C287.668 16.1389 287.439 16.2049 287.272 16.3368C287.109 16.4637 287.028 16.6413 287.028 16.8696C287.028 17.1031 287.114 17.2883 287.287 17.4253C287.465 17.5623 287.693 17.6308 287.972 17.6308ZM291.017 19.5566V18.7574H291.717V19.5566H291.017Z" fill="white"/>
</svg>
