<svg width="149" height="37" viewBox="0 0 149 37" fill="none" xmlns="http://www.w3.org/2000/svg">
<rect width="149" height="37" rx="18.5" fill="#D0001E"/>
<path d="M39.5195 22.2773C39.5195 23.8789 39.1133 25.1055 38.3008 25.957C37.4961 26.8086 36.332 27.2344 34.8086 27.2344C33.3164 27.2344 32.0469 26.9414 31 26.3555V23.2031C32.2812 24.0391 33.457 24.457 34.5273 24.457C35.1367 24.457 35.5938 24.2891 35.8984 23.9531C36.2109 23.6172 36.3672 23.1602 36.3672 22.582C36.3672 22.0117 36.1836 21.4922 35.8164 21.0234C35.4492 20.5469 34.8438 20.0195 34 19.4414C33.2656 18.9336 32.707 18.4492 32.3242 17.9883C31.9492 17.5195 31.6562 16.9961 31.4453 16.418C31.2422 15.8398 31.1406 15.168 31.1406 14.4023C31.1406 12.9336 31.5469 11.7695 32.3594 10.9102C33.1797 10.0508 34.2773 9.62109 35.6523 9.62109C36.9648 9.62109 38.2266 9.98828 39.4375 10.7227L38.3828 13.2773C38.0078 13.0586 37.6133 12.8633 37.1992 12.6914C36.793 12.5195 36.3555 12.4336 35.8867 12.4336C35.3711 12.4336 34.9727 12.6055 34.6914 12.9492C34.418 13.2852 34.2812 13.7461 34.2812 14.332C34.2812 14.9102 34.4453 15.4141 34.7734 15.8438C35.1094 16.2734 35.6914 16.7617 36.5195 17.3086C37.6367 18.0586 38.4141 18.8242 38.8516 19.6055C39.2969 20.3867 39.5195 21.2773 39.5195 22.2773ZM50.9688 15.1406C50.9688 16.9609 50.5078 18.3594 49.5859 19.3359C48.6719 20.3047 47.3477 20.7891 45.6133 20.7891H44.8164V27H41.6289V9.86719H45.9766C49.3047 9.86719 50.9688 11.625 50.9688 15.1406ZM44.8164 18.0234H45.4258C46.207 18.0234 46.7891 17.8086 47.1719 17.3789C47.5547 16.9492 47.7461 16.2461 47.7461 15.2695C47.7461 14.3711 47.5703 13.707 47.2188 13.2773C46.8672 12.8398 46.3242 12.6211 45.5898 12.6211H44.8164V18.0234ZM56.3242 20.332V27H53.1367V9.86719H57.3086C59.0742 9.86719 60.375 10.2852 61.2109 11.1211C62.0547 11.957 62.4766 13.2344 62.4766 14.9531C62.4766 17.1172 61.7461 18.6289 60.2852 19.4883L63.5781 27H60.168L57.4609 20.332H56.3242ZM56.3242 17.5898H57.1445C57.8945 17.5898 58.4336 17.3789 58.7617 16.957C59.0898 16.5273 59.2539 15.8906 59.2539 15.0469C59.2539 14.1719 59.0781 13.5508 58.7266 13.1836C58.3828 12.8086 57.8477 12.6211 57.1211 12.6211H56.3242V17.5898ZM73.2461 27L72.2617 22.6758H67.7969L66.8125 27H63.625L67.8672 9.79688H72.1914L76.4453 27H73.2461ZM71.6641 19.8516L70.75 15.8672C70.6953 15.625 70.5703 15.0195 70.375 14.0508C70.1875 13.0742 70.0742 12.4219 70.0352 12.0938C69.9336 12.7656 69.8047 13.5078 69.6484 14.3203C69.4922 15.125 69.0859 16.9688 68.4297 19.8516H71.6641ZM91.8086 27H87.8242L86.1484 18.0234C85.8906 16.7969 85.707 15.3477 85.5977 13.6758L85.5039 14.543L85.0234 18.0703L83.3945 27H79.4102L76.3047 9.86719H79.4336L80.9688 19.5352C81.1172 20.5039 81.3164 22.0234 81.5664 24.0938C81.7617 22 81.9453 20.5039 82.1172 19.6055L83.9453 9.86719H87.25L89.0781 19.6055C89.3203 21.0508 89.5117 22.5547 89.6523 24.1172C89.9258 21.8047 90.125 20.2773 90.25 19.5352L91.7383 9.86719H94.8906L91.8086 27ZM107.512 18.2695C107.512 21.0977 106.934 23.2617 105.777 24.7617C104.629 26.2539 102.973 27 100.809 27H96.6133V9.86719H101.195C103.188 9.86719 104.738 10.6055 105.848 12.082C106.957 13.5508 107.512 15.6133 107.512 18.2695ZM104.242 18.3633C104.242 14.5352 103.188 12.6211 101.078 12.6211H99.8008V24.2109H100.832C101.996 24.2109 102.855 23.7266 103.41 22.7578C103.965 21.7812 104.242 20.3164 104.242 18.3633ZM118.281 27H109.012V24.7734L114.484 12.6445H109.176V9.86719H118.105V12.0938L112.633 24.2109H118.281V27ZM111.977 8.49609V8.17969C112.297 7.76563 112.668 7.17578 113.09 6.41016C113.512 5.64453 113.812 5.05859 113.992 4.65234H117.719V4.89844C117.531 5.23438 117.066 5.77734 116.324 6.52734C115.582 7.26953 114.863 7.92578 114.168 8.49609H111.977Z" fill="white"/>
</svg>
