<svg width="99" height="31" viewBox="0 0 99 31" fill="none" xmlns="http://www.w3.org/2000/svg">
<g clip-path="url(#clip0_4_48)">
<path d="M0 25.7838H2.248V26.6628H0V25.7838Z" fill="white"/>
<path d="M4.63745 25.8646C4.63745 24.3087 5.82965 23.1821 7.3199 23.1821C8.50704 23.1821 9.29511 23.8136 9.29511 24.4299C9.29511 24.8088 9.05262 25.0664 8.73942 25.0664C8.39085 25.0664 8.14837 24.8441 8.14837 24.5107C8.14837 24.4097 8.17363 24.3087 8.20394 24.243C8.05744 24.1268 7.75939 24.0056 7.29464 24.0056C6.30451 24.0056 5.5417 24.7785 5.5417 25.8545C5.5417 26.9305 6.25399 27.7185 7.33505 27.7185C7.93115 27.7185 8.42116 27.4508 8.80004 27.0366L9.38098 27.6478C8.88592 28.2035 8.14837 28.542 7.33505 28.542C5.75893 28.542 4.63745 27.471 4.63745 25.8595V25.8646Z" fill="white"/>
<path d="M9.85083 26.7286C9.85083 25.7839 10.548 24.9453 11.6593 24.9453C12.7707 24.9453 13.4678 25.7687 13.4678 26.7286C13.4678 27.6884 12.7707 28.5118 11.6593 28.5118C10.548 28.5118 9.85083 27.6884 9.85083 26.7286ZM12.5939 26.7286C12.5939 26.1021 12.2049 25.6576 11.6543 25.6576C11.1036 25.6576 10.7147 26.0971 10.7147 26.7286C10.7147 27.36 11.1036 27.7995 11.6543 27.7995C12.2049 27.7995 12.5939 27.36 12.5939 26.7286Z" fill="white"/>
<path d="M16.8474 25.0058V24.3389C16.8474 23.7125 16.9586 23.3185 17.2819 22.9952C17.5244 22.7578 17.8325 22.6315 18.2114 22.6315C18.6509 22.6315 18.9641 22.8689 18.9641 23.2124C18.9641 23.5206 18.7469 23.6974 18.5044 23.6974C18.2417 23.6974 18.1104 23.5559 18.0144 23.3741C17.9437 23.4044 17.8729 23.4549 17.8376 23.5155C17.7365 23.6671 17.681 23.8792 17.681 24.2076V25.0007H18.565V25.7231H17.681V27.7337H18.3377V28.4409H16.3675V27.7337H16.8424V25.7231H15.3521V27.7337H15.9735V28.4409H14.0033V27.7337H14.5136V25.7231H13.9326V25.0007H14.5136V24.4905C14.5136 23.8843 14.6752 23.3892 14.948 23.1164C15.1753 22.8891 15.438 22.7881 15.8017 22.7881C16.2412 22.7881 16.5544 23.0255 16.5544 23.369C16.5544 23.6772 16.3372 23.854 16.0947 23.854C15.8371 23.854 15.7007 23.7277 15.6047 23.5307C15.5643 23.5559 15.529 23.5862 15.4986 23.6317C15.3976 23.7833 15.3521 24.0308 15.3521 24.3642V25.0007H16.8424L16.8474 25.0058Z" fill="white"/>
<path d="M19.7016 27.0164C19.8177 27.5519 20.2522 27.7843 20.818 27.7843C21.2272 27.7843 21.6566 27.6529 22.0506 27.4205L21.9799 28.1884C21.6212 28.4006 21.1867 28.5016 20.6917 28.5016C19.5854 28.5016 18.8175 27.7944 18.8175 26.7234C18.8175 25.7484 19.4944 24.9301 20.5401 24.9301C21.5858 24.9301 22.192 25.6676 22.192 26.582C22.192 26.7133 22.1769 26.8901 22.1516 27.0063H19.7016V27.0164ZM19.6914 26.4203H21.3433C21.3282 25.9505 21.0251 25.6322 20.53 25.6322C20.1562 25.6322 19.7874 25.8545 19.6914 26.4203Z" fill="white"/>
<path d="M23.5763 27.0164C23.6925 27.5519 24.1269 27.7843 24.6927 27.7843C25.1019 27.7843 25.5313 27.6529 25.9253 27.4205L25.8546 28.1884C25.4959 28.4006 25.0615 28.5016 24.5664 28.5016C23.4601 28.5016 22.6923 27.7944 22.6923 26.7234C22.6923 25.7484 23.3692 24.9301 24.4149 24.9301C25.4606 24.9301 26.0668 25.6676 26.0668 26.582C26.0668 26.7133 26.0516 26.8901 26.0264 27.0063H23.5763V27.0164ZM23.5713 26.4203H25.2232C25.208 25.9505 24.9049 25.6322 24.4098 25.6322C24.036 25.6322 23.6672 25.8545 23.5713 26.4203Z" fill="white"/>
<path d="M28.2188 23.4197V22.6973H29.5675V25.5262C29.8858 25.2181 30.2445 24.9453 30.7244 24.9453C31.0881 24.9453 31.3761 25.0766 31.5529 25.314C31.6994 25.5111 31.7802 25.7788 31.7802 26.092V27.7439H32.2854V28.4511H30.4718V27.7439H30.9366V26.3042C30.9366 26.1173 30.8961 25.9809 30.8305 25.8899C30.7446 25.7788 30.6132 25.7232 30.4516 25.7232C30.1586 25.7232 29.8454 25.895 29.5777 26.1223V27.7439H30.0424V28.4511H28.2289V27.7439H28.734V23.4197H28.2289H28.2188Z" fill="white"/>
<path d="M33.4976 27.0164C33.6138 27.5519 34.0482 27.7843 34.614 27.7843C35.0232 27.7843 35.4526 27.6529 35.8466 27.4205L35.7759 28.1884C35.4172 28.4006 34.9828 28.5016 34.4877 28.5016C33.3814 28.5016 32.6135 27.7944 32.6135 26.7234C32.6135 25.7484 33.2905 24.9301 34.3362 24.9301C35.3819 24.9301 35.9881 25.6676 35.9881 26.582C35.9881 26.7133 35.9729 26.8901 35.9476 27.0063H33.4976V27.0164ZM33.4925 26.4203H35.1444C35.1293 25.9505 34.8262 25.6322 34.3311 25.6322C33.9573 25.6322 33.5885 25.8545 33.4925 26.4203Z" fill="white"/>
<path d="M39.4941 25.5111C39.4941 25.8041 39.2668 26.0466 38.9889 26.0466C38.7313 26.0466 38.5646 25.895 38.4939 25.7384C38.2514 25.8243 37.9735 26.092 37.8169 26.3901V27.7439H38.408V28.4512H36.4681V27.7439H36.9733V25.7334H36.4681V25.011H37.7866V25.7889C38.0746 25.3242 38.4282 24.9453 38.8626 24.9453C39.2971 24.9453 39.489 25.2029 39.489 25.5111H39.4941Z" fill="white"/>
<path d="M39.8527 27.7388H40.373V25.7282H39.8527V25.0058H41.2166V27.7388H41.7218V28.446H39.8527V27.7388ZM40.1457 23.9147C40.1457 23.6015 40.4185 23.3489 40.7216 23.3489C41.0247 23.3489 41.2823 23.6015 41.2823 23.9147C41.2823 24.2279 41.0095 24.4805 40.7064 24.4805C40.4033 24.4805 40.1457 24.2279 40.1457 23.9147Z" fill="white"/>
<path d="M42.8132 28.0419C42.7374 27.9004 42.697 27.7185 42.697 27.5013V25.7332H42.0403V25.0108H42.697V24.2885L43.5356 23.9197V25.0108H44.5661V25.7332H43.5356V27.3346C43.5356 27.4458 43.5507 27.5165 43.5912 27.5872C43.6518 27.6983 43.7781 27.7539 43.9498 27.7539C44.167 27.7539 44.4146 27.668 44.6166 27.572L44.5459 28.3096C44.3135 28.4258 44.0408 28.5117 43.7326 28.5117C43.3234 28.5117 42.99 28.3702 42.8182 28.0419H42.8132Z" fill="white"/>
<path d="M45.1016 27.5468C45.1016 26.9001 45.6573 26.5112 46.4656 26.5112C46.8141 26.5112 47.1425 26.5566 47.3244 26.6071V26.3344C47.3244 26.1323 47.2789 25.9706 47.193 25.8646C47.0516 25.6827 46.8293 25.612 46.5262 25.612C46.3797 25.612 46.2686 25.6372 46.1928 25.6675C46.2079 25.713 46.2231 25.7938 46.2231 25.8393C46.2231 26.0969 46.021 26.2889 45.7634 26.2889C45.5057 26.2889 45.3138 26.107 45.3138 25.8241C45.3138 25.3998 45.7381 24.9502 46.6626 24.9502C47.2435 24.9502 47.6376 25.1169 47.88 25.415C48.0568 25.6372 48.1427 25.9353 48.1427 26.2788V27.7488H48.6479V28.4561H47.3395V28.0772C47.0667 28.3146 46.6575 28.5167 46.1978 28.5167C45.6169 28.5167 45.0966 28.1934 45.0966 27.5518L45.1016 27.5468ZM47.3294 27.5821V27.0416C47.1374 26.9961 46.895 26.9608 46.6323 26.9608C46.2231 26.9608 45.9756 27.1477 45.9756 27.4659C45.9756 27.7387 46.1776 27.8903 46.4807 27.8903C46.7838 27.8903 47.0768 27.7741 47.3345 27.5821H47.3294Z" fill="white"/>
<path d="M52.3608 28.4561C52.3608 28.8804 52.2547 29.234 52.0425 29.4917C51.7647 29.8352 51.3201 30.0171 50.7695 30.0171C50.1784 30.0171 49.6783 29.8301 49.4358 29.5826C49.3045 29.4513 49.2489 29.2997 49.2489 29.133C49.2489 28.8905 49.4257 28.6531 49.7086 28.6531C49.9713 28.6531 50.1835 28.84 50.1835 29.1027C50.1835 29.1431 50.1734 29.2037 50.1683 29.234C50.3098 29.2795 50.4714 29.3199 50.6735 29.3199C50.9766 29.3199 51.214 29.2239 51.3656 29.0219C51.4666 28.8804 51.5222 28.6834 51.5222 28.4258V27.9307C51.2645 28.1883 50.9968 28.3702 50.5472 28.3702C49.6884 28.3702 48.9963 27.7034 48.9963 26.6779C48.9963 25.6524 49.7036 24.9351 50.5876 24.9351C51.0221 24.9351 51.3302 25.1068 51.5575 25.3038V24.9957H52.876V25.7181H52.3709V28.446L52.3608 28.4561ZM49.8551 26.6779C49.8551 27.3043 50.234 27.6529 50.7543 27.6529C51.0423 27.6529 51.2949 27.5215 51.5121 27.3144V25.9454C51.31 25.7888 51.0524 25.6777 50.7543 25.6777C50.234 25.6777 49.8551 26.0212 49.8551 26.6779Z" fill="white"/>
<path d="M54.1896 27.0164C54.3058 27.5519 54.7402 27.7843 55.306 27.7843C55.7152 27.7843 56.1446 27.6529 56.5386 27.4205L56.4679 28.1884C56.1092 28.4006 55.6748 28.5016 55.1797 28.5016C54.0734 28.5016 53.3055 27.7944 53.3055 26.7234C53.3055 25.7484 53.9825 24.9301 55.0282 24.9301C56.0739 24.9301 56.6801 25.6676 56.6801 26.582C56.6801 26.7133 56.6649 26.8901 56.6397 27.0063H54.1896V27.0164ZM54.1845 26.4203H55.8364C55.8213 25.9505 55.5182 25.6322 55.0231 25.6322C54.6493 25.6322 54.2805 25.8545 54.1845 26.4203Z" fill="white"/>
<path d="M61.3577 26.2333C61.085 26.2333 60.898 26.0666 60.898 25.809C60.898 25.7534 60.898 25.708 60.9132 25.6574C60.7718 25.6019 60.605 25.5716 60.4333 25.5716C60.0544 25.5716 59.8675 25.7433 59.8675 25.9252C59.8675 26.1222 60.0595 26.2232 60.5798 26.3647C61.3931 26.587 61.868 26.789 61.868 27.4104C61.868 28.1328 61.2011 28.5167 60.4333 28.5167C59.913 28.5167 59.3573 28.3298 59.13 28.1025C58.9885 27.961 58.938 27.8196 58.938 27.6377C58.938 27.3851 59.1249 27.173 59.3876 27.173C59.62 27.173 59.8473 27.3296 59.8473 27.6276C59.8473 27.6731 59.8372 27.7236 59.8321 27.7691C59.9887 27.8297 60.206 27.8802 60.4434 27.8802C60.7869 27.8802 61.0647 27.764 61.0647 27.5114C61.0647 27.3397 60.9182 27.2386 60.3979 27.0972C59.4583 26.8446 59.0643 26.6173 59.0643 26.0262C59.0643 25.4907 59.4987 24.9351 60.4535 24.9351C60.8627 24.9351 61.3628 25.0917 61.5952 25.3291C61.7215 25.4554 61.7821 25.6019 61.7821 25.7686C61.7821 26.0414 61.6103 26.2333 61.3628 26.2333H61.3577Z" fill="white"/>
<path d="M62.4288 27.7388H62.9492V25.7282H62.4288V25.0058H63.7928V27.7388H64.298V28.446H62.4288V27.7388ZM62.7218 23.9147C62.7218 23.6015 62.9946 23.3489 63.2977 23.3489C63.6008 23.3489 63.8585 23.6015 63.8585 23.9147C63.8585 24.2279 63.5857 24.4805 63.2826 24.4805C62.9795 24.4805 62.7269 24.2279 62.7269 23.9147H62.7218Z" fill="white"/>
<path d="M66.1065 25.5566C66.4298 25.2333 66.7986 24.9453 67.2937 24.9453C67.6978 24.9453 67.9908 25.112 68.1727 25.3848C68.2889 25.5717 68.3495 25.8092 68.3495 26.092V27.7439H68.8547V28.4512H67.0411V27.7439H67.5059V26.3042C67.5059 26.1628 67.4806 26.0365 67.4351 25.9506C67.3594 25.799 67.2179 25.7233 67.0158 25.7233C66.7228 25.7233 66.4096 25.895 66.1419 26.1224V27.7439H66.6067V28.4512H64.7931V27.7439H65.2983V25.7334H64.7931V25.011H66.1116V25.5616L66.1065 25.5566Z" fill="white"/>
<path d="M69.1828 26.6931C69.1828 25.799 69.8951 24.9402 70.9054 24.9402C71.8349 24.9402 72.4462 25.5514 72.4462 26.097C72.4462 26.4607 72.2037 26.678 71.9056 26.678C71.6278 26.678 71.3954 26.4405 71.3954 26.1576C71.3954 26.0566 71.4409 25.9354 71.5015 25.8646C71.4409 25.7788 71.2287 25.6272 70.8953 25.6272C70.5063 25.6272 70.0264 25.9505 70.0264 26.7032C70.0264 27.365 70.5215 27.7792 71.1277 27.7792C71.5369 27.7792 71.8955 27.663 72.335 27.4155L72.2643 28.1834C71.9006 28.3955 71.552 28.4966 71.057 28.4966C69.986 28.4966 69.1777 27.7893 69.1777 26.683L69.1828 26.6931Z" fill="white"/>
<path d="M73.886 27.0164C74.0022 27.5519 74.4367 27.7843 75.0025 27.7843C75.4117 27.7843 75.841 27.6529 76.2351 27.4205L76.1644 28.1884C75.8057 28.4006 75.3712 28.5016 74.8762 28.5016C73.7648 28.5016 72.9969 27.7944 72.9969 26.7234C72.9969 25.7484 73.6739 24.9301 74.7196 24.9301C75.7653 24.9301 76.3715 25.6676 76.3715 26.582C76.3715 26.7133 76.3563 26.8901 76.3311 27.0063H73.881L73.886 27.0164ZM73.8759 26.4203H75.5278C75.5127 25.9505 75.2096 25.6322 74.7145 25.6322C74.3407 25.6322 73.9719 25.8545 73.8759 26.4203Z" fill="white"/>
<path d="M78.7609 27.7389H79.6904V25.1979L78.9074 25.3848L78.7155 24.6776L80.1249 24.3138H80.5341V27.7338H81.4484V28.4411H78.7559V27.7338L78.7609 27.7389Z" fill="white"/>
<path d="M82.3628 29.022C82.2315 28.8806 82.1557 28.7088 82.1557 28.5169C82.1557 28.1936 82.4032 27.941 82.676 27.941C83.0094 27.941 83.2368 28.1936 83.2368 28.4664C83.2368 28.527 83.2216 28.5926 83.2065 28.6482C83.3125 28.6937 83.4641 28.729 83.6409 28.729C84.1612 28.729 84.8432 28.1329 84.8735 26.9306C84.6613 27.2438 84.1966 27.5116 83.6813 27.5116C82.6811 27.5116 81.9385 26.8195 81.9385 25.9254C81.9385 25.0312 82.7215 24.2583 83.7975 24.2583C84.3229 24.2583 84.7523 24.4149 85.0756 24.7483C85.4646 25.1423 85.6868 25.7637 85.6868 26.577C85.6868 28.431 84.7119 29.4464 83.5601 29.4464C83.0499 29.4464 82.6154 29.2898 82.3679 29.022H82.3628ZM83.7874 24.9655C83.2065 24.9655 82.7872 25.405 82.7872 25.9254C82.7872 26.4053 83.166 26.8044 83.747 26.8044C84.3279 26.8044 84.7876 26.4053 84.7876 25.8849C84.7876 25.6425 84.6815 25.405 84.4997 25.2383C84.3229 25.0716 84.0753 24.9655 83.7874 24.9655Z" fill="white"/>
<path d="M87.3185 25.1572C87.3741 25.2431 87.4094 25.3441 87.4094 25.4502C87.4094 25.7331 87.1771 25.9705 86.8992 25.9705C86.6214 25.9705 86.3739 25.7281 86.3739 25.3492C86.3739 25.2077 86.4345 25.0511 86.5507 24.8996C86.8134 24.5561 87.3589 24.2631 88.046 24.2631C89.0613 24.2631 89.6524 24.8693 89.6524 25.4654C89.6524 26.1473 89.1169 26.5111 88.4097 26.9101C87.8287 27.2385 87.5155 27.4759 87.3337 27.7689H89.0866V27.1072H89.7837V28.4509H86.3941L86.2476 28.0266C86.5557 27.3042 87.1922 26.7839 87.8995 26.3595C88.4097 26.0514 88.7835 25.819 88.7835 25.4856C88.7835 25.1875 88.4501 24.9753 88.0156 24.9753C87.7125 24.9753 87.4499 25.0461 87.3185 25.1572Z" fill="white"/>
<path d="M92.754 28.0873H90.5212L90.3292 27.663L92.9258 24.1722L93.537 24.6673L91.5113 27.3801H92.754V26.491L93.5775 26.1626V27.3801H94.3403V28.0873H93.5775V29.3906H92.754V28.0873Z" fill="white"/>
<path d="M96.5479 25.7838H98.7959V26.6628H96.5479V25.7838Z" fill="white"/>
<path d="M61.0498 4.95073C61.0498 4.50113 61.1761 4.09699 61.5399 3.81915C61.7318 3.67265 61.9642 3.53626 62.2016 3.48069C62.8179 3.32408 63.4443 3.34934 64.0556 3.5211C65.0609 3.80905 65.556 4.52639 65.6721 5.52157C65.7227 5.97117 65.7075 6.43592 65.7126 6.89563C65.7227 7.12295 65.7479 7.16337 65.9399 7.16842C66.4147 7.17852 66.8845 7.16842 67.3544 7.16842C67.5211 7.16842 67.5918 7.07749 67.5817 6.91583C67.5817 6.84511 67.5817 6.77944 67.5817 6.71377V2.71788C67.5817 2.55623 67.5918 2.39457 67.5817 2.22282C67.5716 2.0157 67.5413 1.98539 67.3291 1.97023C67.2533 1.95508 67.1775 1.97023 67.1018 1.97023C65.3236 1.97023 63.5403 1.97023 61.7672 1.96518C61.257 1.96518 60.7619 1.99044 60.2618 2.08137C58.8675 2.34911 57.8168 3.04119 57.1954 4.33947C56.8014 5.1629 56.6195 6.03684 56.5387 6.93099C56.4528 7.8706 56.4326 8.82537 56.5033 9.77509C56.5741 10.7299 56.7206 11.6644 57.0843 12.5485C57.6804 14.0337 58.7715 14.948 60.3174 15.3572C60.9488 15.5189 61.5752 15.6098 62.2218 15.63C63.212 15.6654 64.1971 15.6451 65.1468 15.3572C65.9348 15.1046 66.6067 14.7106 67.0512 13.9983C67.4099 13.4376 67.5514 12.8061 67.5766 12.1595C67.5968 11.4472 67.5817 10.7349 67.5817 10.0277C67.5817 9.76498 67.5615 9.74478 67.3038 9.73467C66.8643 9.72962 66.4349 9.72962 65.9954 9.73467C65.7378 9.74478 65.7126 9.76498 65.7126 10.0226C65.7126 10.4975 65.7378 10.9622 65.7075 11.432C65.6923 11.8059 65.6368 12.1948 65.5509 12.5636C65.3993 13.1294 65.0255 13.5133 64.4799 13.7104C63.702 13.973 62.9038 13.973 62.1208 13.8013C61.3984 13.6447 61.0549 13.1648 61.0549 12.4323V4.95578L61.0498 4.95073ZM29.8355 12.5131C29.8355 12.9021 29.8708 13.2961 29.9517 13.6851C30.0982 14.357 30.4316 14.9228 31.0731 15.2713C31.4874 15.4936 31.9269 15.5946 32.3916 15.5946C33.8516 15.5946 35.3014 15.5946 36.7613 15.5845C37.12 15.5845 37.4736 15.5542 37.8323 15.4936C39.1811 15.2511 40.0298 14.2812 40.2167 13.0385C40.2824 12.5838 40.2975 12.1241 40.3177 11.6644C40.3329 10.942 40.3177 10.2196 40.3177 9.5023C40.3177 7.90596 40.3329 6.30458 40.3127 4.70825C40.2975 4.07679 40.6865 3.65244 41.3584 3.61708C41.4746 3.61203 41.616 3.61203 41.7474 3.61708C41.8989 3.61708 41.9848 3.56151 41.9848 3.3847C41.9848 2.99067 41.9848 2.59664 41.9848 2.20766C41.9848 2.00054 41.9393 1.97023 41.7322 1.97023C40.1157 1.96518 38.5143 1.96518 36.8977 1.97023C36.6603 1.97023 36.6249 2.00054 36.6148 2.25818C36.6148 2.59664 36.6148 2.93005 36.6148 3.26852C36.6199 3.58677 36.6249 3.57162 36.9432 3.61708C37.1604 3.65244 37.3877 3.6777 37.5797 3.77368C37.9485 3.9606 38.0445 4.30916 38.0445 4.70825V12.5838C38.0445 12.7505 38.0445 12.9172 38.0091 13.0789C37.9081 13.5841 37.5595 13.8821 37.0392 13.8922C36.3269 13.9074 35.5944 13.8973 34.8821 13.8922C34.5032 13.8922 34.185 13.7558 33.9981 13.4224C33.8667 13.2102 33.8112 12.9627 33.8162 12.7051C33.8213 10.0378 33.8162 7.37049 33.8162 4.70825C33.8162 4.10204 34.0536 3.79389 34.6447 3.6777C34.8872 3.62719 35.1448 3.63729 35.3923 3.62719C35.6449 3.61203 35.6752 3.58677 35.6803 3.32914V2.37942C35.6803 1.98539 35.6651 1.98034 35.2711 1.97528H35.1701C33.2807 1.97528 31.3914 1.97528 29.5021 1.97528C29.2848 1.97528 29.0676 1.96518 28.8403 1.97528C28.5574 1.97528 28.522 2.00559 28.517 2.29859C28.517 2.57138 28.517 2.84417 28.517 3.11697C28.517 3.42343 28.6702 3.59351 28.9767 3.62719C29.5475 3.69286 29.8153 3.96565 29.8405 4.54659V8.71423C29.8405 9.98726 29.8254 11.2502 29.8405 12.5232M10.048 9.87612C9.94699 9.87612 9.88637 9.93674 9.88132 10.0428C9.88132 10.1338 9.88132 10.2398 9.88132 10.3358C9.89142 10.8663 9.81565 11.3765 9.64389 11.8867C9.25996 13.0233 8.482 13.7104 7.2797 13.8619C6.8503 13.9124 6.41081 13.8922 5.97131 13.8922C5.59749 13.8973 5.57728 13.8771 5.57728 13.5133V9.77509C5.57728 9.6589 5.63285 9.58312 5.74904 9.58312C6.01173 9.58312 6.27441 9.56797 6.53205 9.60838C6.82 9.6488 6.99175 9.84581 7.03722 10.1338C7.06753 10.26 7.06248 10.3914 7.06753 10.5227C7.06753 10.6894 7.15341 10.7602 7.31001 10.7602H8.6184C8.74974 10.7602 8.82046 10.6894 8.82046 10.553V10.3914C8.82046 9.22951 8.82046 8.06762 8.82046 6.91078C8.82046 6.81985 8.81036 6.72387 8.80026 6.64304C8.76489 6.62284 8.74469 6.59758 8.72448 6.59758C8.23447 6.58242 7.74445 6.58242 7.25444 6.58242C7.11804 6.58242 7.05742 6.64809 7.06753 6.78954C7.06753 6.87037 7.06753 6.94109 7.06753 7.02192C7.04227 7.4008 6.83515 7.65843 6.46133 7.73926C6.26936 7.77462 6.07235 7.77462 5.87533 7.77462C5.60759 7.77462 5.57728 7.73926 5.57728 7.46647V3.92524C5.57728 3.64234 5.61264 3.60698 5.90564 3.60698C6.38555 3.60698 6.86546 3.60698 7.34537 3.6575C8.54767 3.76358 9.35089 4.38999 9.6742 5.57208C9.74997 5.83982 9.79544 6.10756 9.85101 6.37025C9.88132 6.5016 9.92678 6.60768 10.0783 6.60768C10.5987 6.60768 11.1291 6.60768 11.6494 6.60768C11.7706 6.60768 11.8363 6.54706 11.8414 6.43087V2.37437C11.8414 2.29354 11.8414 2.22282 11.8414 2.14199C11.8262 2.02075 11.7605 1.97023 11.6444 1.97023H11.4524C7.84549 1.97023 4.23858 1.97023 0.626628 1.97023C0.596318 1.97023 0.560956 1.97023 0.530646 1.97023C0.2427 1.97023 0.222493 1.99044 0.217441 2.29354C0.217441 2.65221 0.217441 3.00583 0.217441 3.36955C0.217441 3.44533 0.2427 3.51605 0.267958 3.62213C0.464974 3.62213 0.651886 3.60698 0.833747 3.62213C1.39954 3.66255 1.63697 3.92018 1.65717 4.47587V4.60721C1.65717 7.29471 1.65717 9.98221 1.65717 12.6697C1.65717 12.7859 1.65717 12.892 1.64202 13.0031C1.57634 13.579 1.24293 13.8771 0.667041 13.8922C0.535697 13.8973 0.404354 13.8922 0.27301 13.8922C0.141666 13.8922 0.0608389 13.9579 0.0608389 14.0943C0.0557873 14.5287 0.0608389 14.9632 0.0608389 15.4027C0.0608389 15.5189 0.131563 15.5744 0.247751 15.5896H11.7706C11.8616 15.3218 11.8818 10.3207 11.7959 9.87107C11.215 9.87107 10.6391 9.87107 10.0581 9.87107M90.6931 4.62742C90.678 4.06668 90.971 3.55646 91.6883 3.42512C92.3248 3.31398 92.9462 3.29883 93.5676 3.45038C94.0576 3.56657 94.3859 3.84441 94.4516 4.37484C94.4668 4.54154 94.487 4.7032 94.487 4.86485C94.487 7.43111 94.487 9.99736 94.487 12.5687C94.487 12.7505 94.4617 12.9577 94.4364 13.1496C94.3758 13.574 94.1131 13.8265 93.7242 13.968C93.3099 14.1347 92.8704 14.1448 92.4259 14.1296C92.1278 14.1145 91.8197 14.069 91.5267 13.9932C90.9659 13.8467 90.6982 13.4679 90.6982 12.892V8.72434C90.6982 7.36543 90.7133 6.00148 90.6931 4.62742ZM98.4879 5.84488C98.2757 5.05176 97.9575 4.31927 97.4321 3.67265C96.4622 2.4754 95.1588 1.94497 93.6686 1.80858C93.1179 1.75806 92.5572 1.77827 92.0015 1.77322C91.3044 1.76311 90.6275 1.84899 89.9606 2.04601C88.7381 2.38952 87.7985 3.10181 87.1368 4.18792C86.5306 5.17805 86.2628 6.28437 86.182 7.421C86.1365 8.08277 86.1012 8.74454 86.1365 9.41137C86.1921 10.4823 86.3386 11.523 86.7478 12.5131C87.1873 13.5689 87.8743 14.3974 88.8947 14.943C89.6778 15.3673 90.5163 15.5694 91.3953 15.6553C92.6734 15.7916 93.9262 15.7159 95.1538 15.3218C95.8408 15.1046 96.4521 14.7561 96.9825 14.261C97.9221 13.3921 98.3667 12.2656 98.6142 11.0481C98.7657 10.2853 98.8162 9.5124 98.7809 8.7698C98.8011 7.74936 98.7354 6.78449 98.4828 5.83982M50.123 17.5547C51.4668 17.5547 52.6287 17.0849 53.5936 16.1554C54.4321 15.3269 54.8565 14.2862 54.9525 13.1143C55.0434 11.8362 54.7453 10.6793 53.9623 9.66395C53.4471 9.01733 52.8156 8.50206 52.1134 8.06257C50.7242 7.21388 49.335 6.36015 47.9508 5.51652C47.5416 5.27404 47.1678 4.99114 46.8546 4.64257C46.5616 4.31927 46.3696 3.95049 46.3545 3.5211C46.3343 2.88964 46.6273 2.41478 47.1375 2.06116C47.476 1.82879 47.8498 1.70249 48.2539 1.61661C48.9763 1.47517 49.6937 1.51558 50.3908 1.74796C51.2849 2.04601 51.7851 2.72293 52.0578 3.59182C52.2195 4.10204 52.3155 4.62742 52.3407 5.16795C52.3609 5.55693 52.3913 5.57714 52.76 5.57714C53.1591 5.57714 53.5531 5.57714 53.9421 5.57714C54.2907 5.57714 54.3159 5.54683 54.3159 5.20836C54.3159 3.59182 54.3159 1.97023 54.3159 0.348642C54.3159 0.0354371 54.3008 0.0152303 53.9926 0.00512695H48.2842C47.8245 0.00512695 47.3749 0.0404888 46.9203 0.156678C46.0009 0.394107 45.2128 0.85381 44.5561 1.55094C43.9398 2.21271 43.5356 2.99572 43.3639 3.87977C43.1669 4.88 43.2073 5.88024 43.6165 6.84006C43.9751 7.69379 44.5712 8.37072 45.2785 8.95671C46.0312 9.57807 46.8748 10.0529 47.7184 10.5379C48.4459 10.9572 49.1935 11.3613 49.9109 11.7907C50.3605 12.0635 50.7444 12.4222 51.0324 12.8768C51.4769 13.5942 51.4617 14.4125 50.9667 15.0592C50.704 15.4077 50.3352 15.6199 49.926 15.7714C49.0571 16.0695 48.168 16.0796 47.2739 15.8674C46.5364 15.6906 45.9504 15.2612 45.6119 14.5489C45.4502 14.1751 45.3037 13.776 45.233 13.3769C45.1421 12.8364 45.1168 12.2858 45.0663 11.7452C45.0461 11.4927 45.0259 11.4573 44.7784 11.4573C44.3742 11.4421 43.9751 11.4421 43.566 11.4573C43.3285 11.4573 43.2932 11.4977 43.2831 11.7452C43.278 11.7958 43.2831 11.8564 43.2831 11.917C43.2831 13.6598 43.2831 15.4027 43.2831 17.1556C43.2831 17.191 43.2831 17.2263 43.2831 17.2566C43.2982 17.5446 43.3134 17.5648 43.6215 17.5698C43.6821 17.5799 43.7428 17.5698 43.8084 17.5698H47.0567C48.0872 17.5698 49.1127 17.5799 50.1332 17.5698M19.8079 3.58677H21.2779C21.6164 3.59182 21.9296 3.6676 22.2226 3.83936C22.5408 4.02627 22.7278 4.30411 22.753 4.68804C22.753 4.76887 22.753 4.8598 22.753 4.94062V12.1544C22.753 12.4727 22.7379 12.7909 22.6015 13.0839C22.364 13.6194 21.965 13.9124 21.3891 13.9276C20.8738 13.9377 20.3535 13.9276 19.8432 13.9276C19.5502 13.9276 19.5199 13.8973 19.5199 13.6043V3.62213C19.6563 3.60698 19.722 3.58677 19.8028 3.58677M14.1247 1.97023C13.8115 1.97023 13.7812 2.00054 13.7812 2.29354C13.7812 2.62695 13.7812 2.95531 13.7812 3.27862C13.7812 3.58677 13.8065 3.60193 14.1197 3.61708C14.3773 3.63729 14.6451 3.6575 14.8976 3.70801C15.1351 3.75853 15.322 3.91008 15.3978 4.13741C15.4584 4.30916 15.4786 4.50618 15.4786 4.68299C15.4786 7.31492 15.4786 9.94685 15.4786 12.5838C15.4786 12.7051 15.4887 12.8314 15.4685 12.9425C15.3523 13.6497 15.0239 13.8922 14.4278 13.8922C14.3066 13.8922 14.1854 13.8922 14.0641 13.8922C13.8267 13.9074 13.7762 13.9377 13.7711 14.1802C13.761 14.554 13.761 14.9228 13.7711 15.2966C13.7711 15.534 13.8166 15.5694 14.0641 15.5845H21.6113C22.1872 15.5845 22.7631 15.5037 23.3289 15.3673C24.4302 15.0794 25.2688 14.4479 25.8952 13.5083C26.5216 12.5838 26.7994 11.5381 26.9611 10.447C27.1177 9.40126 27.153 8.35556 27.0722 7.30481C27.0116 6.41066 26.8752 5.52157 26.5418 4.68804C26.3043 4.07173 25.9659 3.50089 25.491 3.04624C24.6929 2.29859 23.7179 1.98539 22.6469 1.96518C21.2527 1.94497 19.8685 1.96518 18.4793 1.96518C17.0194 1.96518 15.5695 1.96518 14.1146 1.96518M71.0118 8.70413V4.60216C71.0118 4.48597 71.0118 4.35968 70.9966 4.24349C70.9613 3.97575 70.8047 3.78884 70.5521 3.72317C70.3298 3.66255 70.0873 3.63729 69.8499 3.61708C69.5316 3.59688 69.5114 3.58677 69.5064 3.27862C69.5064 2.95531 69.5064 2.632 69.5064 2.29859C69.5165 1.99549 69.5367 1.97023 69.8549 1.97023C70.8047 1.96518 71.7594 1.97023 72.7041 1.97023C73.8559 1.97023 75.0026 1.97023 76.1493 1.97023C76.4979 1.97023 76.5232 1.99044 76.5282 2.32385C76.5282 2.64716 76.5282 2.96541 76.5282 3.27862C76.5282 3.58677 76.503 3.60193 76.1847 3.61708C75.9978 3.61708 75.8109 3.61708 75.629 3.66255C75.139 3.76863 74.9066 4.05153 74.8915 4.5567V7.15326C74.8915 7.49173 74.9167 7.51698 75.235 7.51698H78.4832C78.7762 7.51698 78.8065 7.49173 78.8065 7.19368C78.8065 6.26922 78.7964 5.33971 78.8065 4.40515C78.8065 3.87472 78.4529 3.63729 78.0336 3.61708C77.8871 3.60698 77.7507 3.61708 77.6143 3.61708C77.3921 3.60193 77.3466 3.57162 77.3466 3.36955C77.3466 2.99067 77.3466 2.60169 77.3466 2.22787C77.3466 2.0258 77.4022 1.98539 77.6143 1.97528C77.6699 1.96518 77.7204 1.97528 77.7709 1.97528H83.8734C83.9239 1.97528 83.9795 1.97023 84.0401 1.97528C84.2674 1.98539 84.3179 2.01065 84.3179 2.23292C84.3331 2.6219 84.3179 2.99572 84.328 3.3847C84.328 3.55141 84.2371 3.60698 84.0805 3.62213C83.8077 3.64234 83.5349 3.6676 83.2672 3.70801C82.9742 3.75853 82.8075 3.95049 82.7468 4.23339C82.7165 4.38494 82.6812 4.5567 82.6812 4.7133V12.9779C82.6812 13.1244 82.7014 13.2658 82.7367 13.4022C82.8024 13.6396 82.9742 13.8114 83.2116 13.8417C83.4743 13.8771 83.737 13.8821 83.9946 13.8922C84.2826 13.9074 84.3179 13.9427 84.323 14.2256C84.3331 14.5742 84.3331 14.9228 84.323 15.2713C84.323 15.5542 84.2826 15.5896 83.9946 15.5946H77.5689C77.4325 15.5845 77.3516 15.5189 77.3516 15.3875C77.3516 14.9682 77.3516 14.5338 77.3516 14.1094C77.3516 13.9781 77.4325 13.9124 77.5689 13.9023C77.7002 13.8973 77.8467 13.9023 77.9932 13.8973C78.4782 13.8821 78.7611 13.6245 78.8015 13.1345C78.8116 13.0486 78.8116 12.9627 78.8116 12.8718V9.62859C78.8116 9.47704 78.7257 9.41137 78.5792 9.41137H75.0986C74.9723 9.41642 74.9066 9.49725 74.8965 9.61849V13.0334C74.9319 13.5436 75.1693 13.8063 75.6795 13.8821C75.8664 13.9074 76.0534 13.8973 76.2352 13.9023C76.4777 13.9175 76.5282 13.9478 76.5333 14.1903C76.5434 14.5691 76.5434 14.9379 76.5333 15.3117C76.5333 15.5492 76.4827 15.5845 76.2403 15.5997H69.8499C69.5569 15.5896 69.5266 15.5694 69.5215 15.2764C69.5165 14.9177 69.5114 14.5641 69.5215 14.1953C69.5215 13.9528 69.5619 13.9175 69.8044 13.9074C69.9509 13.9023 70.0873 13.9074 70.2389 13.9023C70.648 13.8872 70.936 13.6497 70.9865 13.2355C71.0219 13.0688 71.0219 12.9071 71.0219 12.7455V8.71423L71.0118 8.70413Z" fill="white"/>
</g>
<defs>
<clipPath id="clip0_4_48">
<rect width="98.7958" height="30.0222" fill="white"/>
</clipPath>
</defs>
</svg>
