<svg width="60" height="45" viewBox="0 0 60 45" fill="none" xmlns="http://www.w3.org/2000/svg">
<rect width="60" height="45" fill="#E3000F"/>
<path d="M40.9418 14.5879C40.9418 13.7199 40.8298 13.1086 40.6058 12.7539C40.3911 12.3992 40.1064 12.2219 39.7518 12.2219C39.3598 12.2219 39.0658 12.4179 38.8698 12.8099C38.6738 13.2019 38.5758 13.7479 38.5758 14.4479C38.5758 14.8492 38.6038 15.1899 38.6598 15.4699C38.7251 15.7499 38.8091 15.9739 38.9118 16.1419C39.0238 16.3099 39.1498 16.4312 39.2898 16.5059C39.4391 16.5806 39.5978 16.6179 39.7658 16.6179C39.9244 16.6179 40.0738 16.5806 40.2138 16.5059C40.3538 16.4312 40.4751 16.3146 40.5778 16.1559C40.6898 15.9972 40.7784 15.7872 40.8438 15.5259C40.9091 15.2646 40.9418 14.9519 40.9418 14.5879ZM37.2878 20.0759C37.4464 20.2066 37.6238 20.3279 37.8198 20.4399C38.0158 20.5519 38.2771 20.6079 38.6038 20.6079C38.8744 20.6079 39.1451 20.5286 39.4158 20.3699C39.6958 20.2112 39.9478 19.9732 40.1718 19.6559C40.3958 19.3292 40.5778 18.9186 40.7178 18.4239C40.8671 17.9292 40.9511 17.3412 40.9698 16.6599L40.9418 16.6319C40.8578 16.7439 40.7598 16.8512 40.6478 16.9539C40.5451 17.0472 40.4191 17.1312 40.2698 17.2059C40.1298 17.2712 39.9618 17.3226 39.7658 17.3599C39.5791 17.3972 39.3551 17.4159 39.0938 17.4159C38.7391 17.4159 38.3984 17.3599 38.0718 17.2479C37.7544 17.1359 37.4744 16.9679 37.2318 16.7439C36.9891 16.5199 36.7931 16.2446 36.6438 15.9179C36.5038 15.5819 36.4338 15.1899 36.4338 14.7419C36.4338 14.2752 36.5038 13.8506 36.6438 13.4679C36.7931 13.0759 37.0031 12.7446 37.2738 12.4739C37.5538 12.1939 37.8898 11.9792 38.2818 11.8299C38.6738 11.6712 39.1171 11.5919 39.6118 11.5919C40.1251 11.5919 40.5871 11.6759 40.9978 11.8439C41.4178 12.0026 41.7771 12.2452 42.0758 12.5719C42.3744 12.8986 42.6031 13.3092 42.7618 13.8039C42.9298 14.2892 43.0138 14.8586 43.0138 15.5119C43.0138 16.4172 42.9064 17.2246 42.6918 17.9339C42.4771 18.6339 42.1738 19.2266 41.7818 19.7119C41.3991 20.1972 40.9371 20.5659 40.3958 20.8179C39.8544 21.0606 39.2524 21.1819 38.5898 21.1819C38.4218 21.1819 38.2304 21.1632 38.0158 21.1259C37.8104 21.0979 37.6518 21.0559 37.5398 20.9999C37.4931 20.8692 37.4418 20.7339 37.3858 20.5939C37.3298 20.4539 37.2644 20.3139 37.1898 20.1739L37.2878 20.0759Z" fill="white"/>
<path d="M48.7211 14.5879C48.7211 13.7199 48.6091 13.1086 48.3851 12.7539C48.1704 12.3992 47.8857 12.2219 47.5311 12.2219C47.1391 12.2219 46.8451 12.4179 46.6491 12.8099C46.4531 13.2019 46.3551 13.7479 46.3551 14.4479C46.3551 14.8492 46.3831 15.1899 46.4391 15.4699C46.5044 15.7499 46.5884 15.9739 46.6911 16.1419C46.8031 16.3099 46.9291 16.4312 47.0691 16.5059C47.2184 16.5806 47.3771 16.6179 47.5451 16.6179C47.7037 16.6179 47.8531 16.5806 47.9931 16.5059C48.1331 16.4312 48.2544 16.3146 48.3571 16.1559C48.4691 15.9972 48.5577 15.7872 48.6231 15.5259C48.6884 15.2646 48.7211 14.9519 48.7211 14.5879ZM45.0671 20.0759C45.2257 20.2066 45.4031 20.3279 45.5991 20.4399C45.7951 20.5519 46.0564 20.6079 46.3831 20.6079C46.6537 20.6079 46.9244 20.5286 47.1951 20.3699C47.4751 20.2112 47.7271 19.9732 47.9511 19.6559C48.1751 19.3292 48.3571 18.9186 48.4971 18.4239C48.6464 17.9292 48.7304 17.3412 48.7491 16.6599L48.7211 16.6319C48.6371 16.7439 48.5391 16.8512 48.4271 16.9539C48.3244 17.0472 48.1984 17.1312 48.0491 17.2059C47.9091 17.2712 47.7411 17.3226 47.5451 17.3599C47.3584 17.3972 47.1344 17.4159 46.8731 17.4159C46.5184 17.4159 46.1777 17.3599 45.8511 17.2479C45.5337 17.1359 45.2537 16.9679 45.0111 16.7439C44.7684 16.5199 44.5724 16.2446 44.4231 15.9179C44.2831 15.5819 44.2131 15.1899 44.2131 14.7419C44.2131 14.2752 44.2831 13.8506 44.4231 13.4679C44.5724 13.0759 44.7824 12.7446 45.0531 12.4739C45.3331 12.1939 45.6691 11.9792 46.0611 11.8299C46.4531 11.6712 46.8964 11.5919 47.3911 11.5919C47.9044 11.5919 48.3664 11.6759 48.7771 11.8439C49.1971 12.0026 49.5564 12.2452 49.8551 12.5719C50.1537 12.8986 50.3824 13.3092 50.5411 13.8039C50.7091 14.2892 50.7931 14.8586 50.7931 15.5119C50.7931 16.4172 50.6857 17.2246 50.4711 17.9339C50.2564 18.6339 49.9531 19.2266 49.5611 19.7119C49.1784 20.1972 48.7164 20.5659 48.1751 20.8179C47.6337 21.0606 47.0317 21.1819 46.3691 21.1819C46.2011 21.1819 46.0097 21.1632 45.7951 21.1259C45.5897 21.0979 45.4311 21.0559 45.3191 20.9999C45.2724 20.8692 45.2211 20.7339 45.1651 20.5939C45.1091 20.4539 45.0437 20.3139 44.9691 20.1739L45.0671 20.0759Z" fill="white"/>
<path d="M45.8898 32.5349C45.8898 32.4082 45.8748 32.3016 45.8448 32.2149C45.8181 32.1282 45.7798 32.0599 45.7298 32.0099C45.6831 31.9566 45.6264 31.9182 45.5598 31.8949C45.4964 31.8716 45.4298 31.8599 45.3598 31.8599H45.2448C45.2281 31.8599 45.2114 31.8599 45.1948 31.8599C45.1781 31.8599 45.1631 31.8616 45.1498 31.8649C45.1464 32.1049 45.1431 32.3416 45.1398 32.5749C45.1398 32.8049 45.1398 33.0366 45.1398 33.2699C45.2231 33.2699 45.3081 33.2616 45.3948 33.2449C45.4848 33.2282 45.5664 33.1949 45.6398 33.1449C45.7131 33.0916 45.7731 33.0166 45.8198 32.9199C45.8664 32.8232 45.8898 32.6949 45.8898 32.5349ZM44.3998 32.9599C44.3998 32.6832 44.3964 32.4382 44.3898 32.2249C44.3831 32.0082 44.3731 31.7916 44.3598 31.5749C44.4164 31.5816 44.4781 31.5882 44.5448 31.5949C44.6114 31.5982 44.6864 31.5999 44.7698 31.5999C44.8864 31.5999 45.0064 31.5966 45.1298 31.5899C45.2564 31.5799 45.3798 31.5749 45.4998 31.5749C45.7364 31.5749 45.9214 31.5932 46.0548 31.6299C46.1881 31.6632 46.2931 31.7132 46.3698 31.7799C46.4764 31.8666 46.5548 31.9632 46.6048 32.0699C46.6548 32.1766 46.6798 32.3049 46.6798 32.4549C46.6798 32.6449 46.6481 32.8082 46.5848 32.9449C46.5214 33.0816 46.4314 33.1932 46.3148 33.2799C46.2014 33.3632 46.0664 33.4249 45.9098 33.4649C45.7531 33.5049 45.5814 33.5249 45.3948 33.5249H45.1398C45.1398 33.7749 45.1414 34.0249 45.1448 34.2749C45.1514 34.5216 45.1631 34.7666 45.1798 35.0099C45.1231 35.0032 45.0614 34.9999 44.9948 34.9999C44.9281 34.9999 44.8531 34.9999 44.7698 34.9999C44.6864 34.9999 44.6114 34.9999 44.5448 34.9999C44.4781 34.9999 44.4164 35.0032 44.3598 35.0099C44.3731 34.8032 44.3831 34.5932 44.3898 34.3799C44.3964 34.1632 44.3998 33.9166 44.3998 33.6399V32.9599Z" fill="white"/>
<path d="M47.2231 32.9599C47.2231 32.6832 47.2198 32.4382 47.2131 32.2249C47.2064 32.0082 47.1964 31.7916 47.1831 31.5749C47.2398 31.5816 47.3014 31.5882 47.3681 31.5949C47.4348 31.5982 47.5098 31.5999 47.5931 31.5999C47.6764 31.5999 47.7514 31.5982 47.8181 31.5949C47.8848 31.5882 47.9464 31.5816 48.0031 31.5749C47.9898 31.7916 47.9798 32.0082 47.9731 32.2249C47.9664 32.4382 47.9631 32.6832 47.9631 32.9599V33.6399C47.9631 33.8299 47.9631 34.0132 47.9631 34.1899C47.9664 34.3666 47.9698 34.5199 47.9731 34.6499C48.1631 34.6499 48.3531 34.6449 48.5431 34.6349C48.7331 34.6249 48.9248 34.6082 49.1181 34.5849C49.1114 34.6216 49.1064 34.6549 49.1031 34.6849C49.0998 34.7149 49.0981 34.7566 49.0981 34.8099C49.0981 34.8632 49.0998 34.9049 49.1031 34.9349C49.1064 34.9649 49.1114 34.9899 49.1181 35.0099C49.0281 35.0066 48.9164 35.0032 48.7831 34.9999C48.6531 34.9999 48.4731 34.9999 48.2431 34.9999C48.0398 34.9999 47.8748 34.9999 47.7481 34.9999C47.6248 34.9999 47.5248 34.9999 47.4481 34.9999C47.3748 34.9999 47.3181 34.9999 47.2781 34.9999C47.2414 35.0032 47.2098 35.0066 47.1831 35.0099C47.1964 34.8032 47.2064 34.5932 47.2131 34.3799C47.2198 34.1632 47.2231 33.9166 47.2231 33.6399V32.9599Z" fill="white"/>
<path d="M49.7681 32.5699C49.7681 32.3399 49.7648 32.1466 49.7581 31.9899C49.7514 31.8332 49.7464 31.6949 49.7431 31.5749C49.8364 31.5916 49.9114 31.5999 49.9681 31.5999C50.0248 31.5999 50.0998 31.5916 50.1931 31.5749C50.5564 31.9782 50.9148 32.3749 51.2681 32.7649C51.6248 33.1549 51.9898 33.5516 52.3631 33.9549V33.0349C52.3631 32.8716 52.3614 32.7116 52.3581 32.5549C52.3581 32.3949 52.3564 32.2482 52.3531 32.1149C52.3531 31.9816 52.3498 31.8666 52.3431 31.7699C52.3398 31.6732 52.3348 31.6082 52.3281 31.5749C52.4214 31.5916 52.4964 31.5999 52.5531 31.5999C52.6098 31.5999 52.6848 31.5916 52.7781 31.5749C52.7614 31.8782 52.7481 32.1532 52.7381 32.3999C52.7281 32.6432 52.7198 32.8732 52.7131 33.0899C52.7064 33.3066 52.7014 33.5216 52.6981 33.7349C52.6981 33.9449 52.6981 34.1699 52.6981 34.4099V35.0099C52.6314 35.0032 52.5631 34.9999 52.4931 34.9999C52.4198 34.9999 52.3548 35.0032 52.2981 35.0099C51.6114 34.2099 50.8831 33.4049 50.1131 32.5949C50.1098 32.6916 50.1064 32.7882 50.1031 32.8849C50.1031 32.9816 50.1031 33.0799 50.1031 33.1799V33.7599C50.1031 33.9599 50.1031 34.1299 50.1031 34.2699C50.1064 34.4099 50.1098 34.5282 50.1131 34.6249C50.1164 34.7216 50.1198 34.8016 50.1231 34.8649C50.1264 34.9249 50.1298 34.9732 50.1331 35.0099C50.0931 35.0032 50.0531 34.9999 50.0131 34.9999C49.9731 34.9999 49.9348 34.9999 49.8981 34.9999C49.8214 34.9999 49.7448 35.0032 49.6681 35.0099C49.6748 34.9832 49.6831 34.8882 49.6931 34.7249C49.7031 34.5616 49.7131 34.3632 49.7231 34.1299C49.7364 33.8932 49.7464 33.6382 49.7531 33.3649C49.7631 33.0882 49.7681 32.8232 49.7681 32.5699Z" fill="white"/>
<path d="M54.6798 10.7599C54.7064 10.8266 54.7298 10.8932 54.7498 10.9599C54.7764 11.0199 54.8064 11.0766 54.8398 11.1299C54.8731 11.1899 54.9098 11.2466 54.9498 11.2999C54.9964 11.3532 55.0398 11.4066 55.0798 11.4599C54.9931 11.4932 54.8798 11.5399 54.7398 11.5999C54.5998 11.6599 54.4564 11.7199 54.3098 11.7799C54.1631 11.8399 54.0298 11.8966 53.9098 11.9499C53.7898 12.0032 53.7031 12.0432 53.6498 12.0699C53.7031 12.0966 53.7898 12.1366 53.9098 12.1899C54.0298 12.2432 54.1631 12.2999 54.3098 12.3599C54.4564 12.4199 54.5998 12.4799 54.7398 12.5399C54.8798 12.5999 54.9931 12.6466 55.0798 12.6799C55.0398 12.7332 54.9964 12.7866 54.9498 12.8399C54.9098 12.8932 54.8731 12.9466 54.8398 12.9999C54.8064 13.0599 54.7764 13.1232 54.7498 13.1899C54.7298 13.2499 54.7064 13.3132 54.6798 13.3799C54.6064 13.3199 54.5064 13.2432 54.3798 13.1499C54.2598 13.0499 54.1364 12.9532 54.0098 12.8599C53.8831 12.7599 53.7664 12.6732 53.6598 12.5999C53.5531 12.5199 53.4764 12.4666 53.4298 12.4399C53.4298 12.4999 53.4364 12.5966 53.4498 12.7299C53.4631 12.8632 53.4764 13.0099 53.4898 13.1699C53.5098 13.3232 53.5298 13.4766 53.5498 13.6299C53.5764 13.7766 53.5998 13.8966 53.6198 13.9899C53.4731 13.9566 53.3398 13.9399 53.2198 13.9399C53.0998 13.9399 52.9664 13.9566 52.8198 13.9899C52.8398 13.8966 52.8598 13.7766 52.8798 13.6299C52.9064 13.4766 52.9264 13.3232 52.9398 13.1699C52.9598 13.0099 52.9764 12.8632 52.9898 12.7299C53.0031 12.5966 53.0098 12.4999 53.0098 12.4399C52.9631 12.4732 52.8831 12.5299 52.7698 12.6099C52.6564 12.6832 52.5364 12.7699 52.4098 12.8699C52.2898 12.9632 52.1698 13.0566 52.0498 13.1499C51.9298 13.2432 51.8331 13.3199 51.7598 13.3799C51.7331 13.3132 51.7064 13.2499 51.6798 13.1899C51.6598 13.1232 51.6331 13.0632 51.5998 13.0099C51.5664 12.9499 51.5264 12.8932 51.4798 12.8399C51.4398 12.7866 51.3998 12.7332 51.3598 12.6799C51.4464 12.6466 51.5598 12.6032 51.6998 12.5499C51.8398 12.4899 51.9798 12.4299 52.1198 12.3699C52.2664 12.3032 52.3998 12.2432 52.5198 12.1899C52.6464 12.1366 52.7364 12.0966 52.7898 12.0699C52.7364 12.0432 52.6464 12.0032 52.5198 11.9499C52.3998 11.8966 52.2664 11.8399 52.1198 11.7799C51.9798 11.7132 51.8398 11.6532 51.6998 11.5999C51.5598 11.5399 51.4464 11.4932 51.3598 11.4599C51.3998 11.4066 51.4398 11.3532 51.4798 11.2999C51.5264 11.2466 51.5664 11.1899 51.5998 11.1299C51.6331 11.0766 51.6598 11.0199 51.6798 10.9599C51.7064 10.8932 51.7331 10.8266 51.7598 10.7599C51.8264 10.8199 51.9198 10.8999 52.0398 10.9999C52.1598 11.0932 52.2831 11.1899 52.4098 11.2899C52.5364 11.3832 52.6564 11.4699 52.7698 11.5499C52.8831 11.6232 52.9631 11.6732 53.0098 11.6999C53.0098 11.6466 53.0031 11.5532 52.9898 11.4199C52.9764 11.2866 52.9598 11.1432 52.9398 10.9899C52.9264 10.8299 52.9064 10.6732 52.8798 10.5199C52.8598 10.3666 52.8398 10.2432 52.8198 10.1499C52.9664 10.1832 53.0998 10.1999 53.2198 10.1999C53.3398 10.1999 53.4731 10.1832 53.6198 10.1499C53.5998 10.2432 53.5764 10.3666 53.5498 10.5199C53.5298 10.6732 53.5098 10.8299 53.4898 10.9899C53.4764 11.1432 53.4631 11.2866 53.4498 11.4199C53.4364 11.5532 53.4298 11.6466 53.4298 11.6999C53.4764 11.6732 53.5531 11.6232 53.6598 11.5499C53.7664 11.4699 53.8831 11.3832 54.0098 11.2899C54.1364 11.1899 54.2598 11.0932 54.3798 10.9999C54.5064 10.8999 54.6064 10.8199 54.6798 10.7599Z" fill="white"/>
<path d="M15.8398 11.4959C15.7971 12.1359 15.7544 12.8506 15.7118 13.6399C15.6904 14.4079 15.6584 15.2079 15.6158 16.0399C15.5944 16.8719 15.5731 17.7146 15.5518 18.5679C15.5304 19.4212 15.5198 20.2532 15.5198 21.0639V25.4479C15.5198 26.5786 15.5304 27.7412 15.5518 28.9359C15.5944 30.1306 15.6478 31.5066 15.7118 33.0639C15.2851 33.0212 14.8691 32.9999 14.4638 32.9999C14.0584 32.9999 13.6424 32.9999 13.2158 32.9999C12.7891 32.9999 12.3624 32.9999 11.9358 32.9999C11.5304 32.9999 11.1144 33.0212 10.6878 33.0639C10.7091 32.7226 10.7411 32.2319 10.7838 31.5919C10.8264 30.9519 10.8584 30.2479 10.8798 29.4799C10.9224 28.6906 10.9544 27.8586 10.9758 26.9839C11.0184 26.1092 11.0398 25.2239 11.0398 24.3279V15.3039C10.8904 15.3679 10.6664 15.4746 10.3678 15.6239C10.0691 15.7732 9.73843 15.9439 9.37577 16.1359C9.03443 16.3066 8.68243 16.4879 8.31977 16.6799C7.9571 16.8506 7.62643 16.9999 7.32777 17.1279C7.0931 16.8079 6.81577 16.4772 6.49577 16.1359C6.1971 15.7732 5.95177 15.5172 5.75977 15.3679C7.42377 14.7706 9.00243 14.1519 10.4958 13.5119C11.9891 12.8506 13.5678 12.0932 15.2318 11.2399L15.8398 11.4959Z" fill="white"/>
<path d="M28.597 18.3439C28.597 16.3599 28.341 14.9626 27.829 14.1519C27.3384 13.3412 26.6877 12.9359 25.877 12.9359C24.981 12.9359 24.309 13.3839 23.861 14.2799C23.413 15.1759 23.189 16.4239 23.189 18.0239C23.189 18.9412 23.253 19.7199 23.381 20.3599C23.5303 20.9999 23.7223 21.5119 23.957 21.8959C24.213 22.2799 24.501 22.5572 24.821 22.7279C25.1623 22.8986 25.525 22.9839 25.909 22.9839C26.2717 22.9839 26.613 22.8986 26.933 22.7279C27.253 22.5572 27.5303 22.2906 27.765 21.9279C28.021 21.5652 28.2237 21.0852 28.373 20.4879C28.5223 19.8906 28.597 19.1759 28.597 18.3439ZM20.245 30.8879C20.6077 31.1866 21.013 31.4639 21.461 31.7199C21.909 31.9759 22.5063 32.1039 23.253 32.1039C23.8717 32.1039 24.4903 31.9226 25.109 31.5599C25.749 31.1972 26.325 30.6532 26.837 29.9279C27.349 29.1812 27.765 28.2426 28.085 27.1119C28.4263 25.9812 28.6183 24.6372 28.661 23.0799L28.597 23.0159C28.405 23.2719 28.181 23.5172 27.925 23.7519C27.6903 23.9652 27.4023 24.1572 27.061 24.3279C26.741 24.4772 26.357 24.5946 25.909 24.6799C25.4824 24.7652 24.9703 24.8079 24.373 24.8079C23.5623 24.8079 22.7837 24.6799 22.037 24.4239C21.3117 24.1679 20.6717 23.7839 20.117 23.2719C19.5623 22.7599 19.1143 22.1306 18.773 21.3839C18.453 20.6159 18.293 19.7199 18.293 18.6959C18.293 17.6292 18.453 16.6586 18.773 15.7839C19.1143 14.8879 19.5943 14.1306 20.213 13.5119C20.853 12.8719 21.621 12.3812 22.517 12.0399C23.413 11.6772 24.4263 11.4959 25.557 11.4959C26.7303 11.4959 27.7864 11.6879 28.725 12.0719C29.685 12.4346 30.5063 12.9892 31.189 13.7359C31.8717 14.4826 32.3944 15.4212 32.757 16.5519C33.141 17.6612 33.333 18.9626 33.333 20.4559C33.333 22.5252 33.0877 24.3706 32.597 25.9919C32.1064 27.5919 31.413 28.9466 30.517 30.0559C29.6424 31.1652 28.5863 32.0079 27.349 32.5839C26.1117 33.1386 24.7357 33.4159 23.221 33.4159C22.837 33.4159 22.3997 33.3732 21.909 33.2879C21.4397 33.2239 21.077 33.1279 20.821 32.9999C20.7143 32.7012 20.597 32.3919 20.469 32.0719C20.341 31.7519 20.1917 31.4319 20.021 31.1119L20.245 30.8879Z" fill="white"/>
</svg>
